<svg width="22" height="17" viewBox="0 0 22 17" fill="none" xmlns="http://www.w3.org/2000/svg">
<path d="M12.327 17C10.9488 16.7538 10.4257 14.2859 9.84838 10.7886C8.32329 11.0335 6.22938 11.4754 3.97687 11.9722C3.60962 12.9568 2.98172 14.3959 2.09321 16.2898C1.59628 17.3832 -0.0207667 16.9398 0.00020205 15.7825C0.00020205 15.4218 0.554585 14.0504 1.66357 11.6679C1.1925 10.8033 1.61372 10.022 2.55585 9.819C4.46861 6.31465 7.93683 0.191633 8.97814 0C10.4508 0.000879453 10.1689 2.02947 10.8618 5.02788L12.5033 12.8628C13.1918 14.916 14.2837 16.6326 12.327 17ZM8.43832 4.1147L5.28785 9.31173C6.17642 9.07889 7.52403 8.79706 9.3307 8.46627L8.43832 4.1147ZM18.0891 2.36762C18.0372 3.10966 17.9869 3.97996 18.0231 4.89284C20.0619 4.98012 21.9646 4.50825 21.9998 5.92993C22.0113 6.46736 21.5772 6.98989 21.0524 6.96707C20.0982 6.81383 19.0871 6.93629 18.0451 6.8994V9.54862C18.1362 10.9484 15.9689 10.9068 16.0843 9.54862L16.0622 6.94451C13.8004 7.10435 12.453 7.09666 12.4711 5.98635C12.5255 4.66831 13.3163 5.17202 16.0622 4.93786C16.0305 3.89888 16.03 2.92436 16.1504 2.1985C16.4082 0.936441 18.0833 1.25898 18.0891 2.36762Z" fill="#434B60"/>
</svg>
