<svg width="27" height="27" viewBox="0 0 27 27" fill="none" xmlns="http://www.w3.org/2000/svg">
<path d="M10.3828 1.42344C10.1531 0.865625 9.60468 0.5 8.99999 0.5C8.39531 0.5 7.84687 0.865625 7.61718 1.42344L1.99218 14.9234L0.117181 19.4234C-0.201569 20.1875 0.159368 21.0641 0.923431 21.3828C1.68749 21.7016 2.56406 21.3406 2.88281 20.5766L4.37343 17H13.6266L15.1172 20.5766C15.4359 21.3406 16.3125 21.7016 17.0766 21.3828C17.8406 21.0641 18.2016 20.1875 17.8828 19.4234L16.0078 14.9234L10.3828 1.42344ZM12.375 14H5.62499L8.99999 5.9L12.375 14Z" fill="#3182F7"/>
</svg>
