<svg width="30" height="28" viewBox="0 0 30 28" fill="none" xmlns="http://www.w3.org/2000/svg">
<path d="M25.2309 26.1945H2.53405V6.33473H16.1728L18.2361 4.5293H2.53405C1.98682 4.5293 1.462 4.71951 1.07504 5.05809C0.688091 5.39668 0.470703 5.8559 0.470703 6.33473V26.1945C0.470703 26.6733 0.688091 27.1325 1.07504 27.4711C1.462 27.8097 1.98682 27.9999 2.53405 27.9999H25.2309C25.7781 27.9999 26.3029 27.8097 26.6899 27.4711C27.0768 27.1325 27.2942 26.6733 27.2942 26.1945V12.6537L25.2309 14.4592V26.1945Z" fill="#ACB2BB"/>
<path d="M29.0507 3.53375L25.639 0.486627C25.4876 0.351026 25.3077 0.243439 25.1096 0.170032C24.9116 0.096624 24.6993 0.0588379 24.4848 0.0588379C24.2704 0.0588379 24.0581 0.096624 23.86 0.170032C23.662 0.243439 23.4821 0.351026 23.3307 0.486627L9.45072 12.9554L8.32696 17.3046C8.27908 17.5154 8.28412 17.7331 8.3417 17.9419C8.39927 18.1508 8.50797 18.3457 8.65996 18.5126C8.81195 18.6794 9.00346 18.8142 9.22072 18.907C9.43797 18.9999 9.67557 19.0486 9.91642 19.0497C10.0409 19.0619 10.1665 19.0619 10.291 19.0497L15.2011 18.0822L29.0507 5.5953C29.2026 5.46007 29.323 5.29942 29.4052 5.12254C29.4874 4.94566 29.5297 4.75603 29.5297 4.56453C29.5297 4.37302 29.4874 4.18339 29.4052 4.00651C29.323 3.82963 29.2026 3.66898 29.0507 3.53375ZM14.1482 16.4094L10.4429 17.1418L11.3034 13.8596L21.7514 4.46506L24.6063 7.01488L14.1482 16.4094ZM25.7503 5.99315L22.8954 3.44333L24.4646 2.01471L27.3398 4.58261L25.7503 5.99315Z" fill="#ACB2BB"/>
</svg>
