<svg width="28" height="28" viewBox="0 0 28 28" fill="none" xmlns="http://www.w3.org/2000/svg">
<path fill-rule="evenodd" clip-rule="evenodd" d="M8 0C3.58172 0 0 3.58172 0 8V20C0 24.4183 3.58172 28 8 28H20C24.4183 28 28 24.4183 28 20V8C28 3.58172 24.4183 0 20 0H8ZM21.1037 7.82345L12.7927 17.0198L9.05003 12.9043C8.70431 12.5241 8.1439 12.5241 7.79774 12.9043C7.45202 13.2844 7.45202 13.9006 7.79774 14.2808L12.1796 19.0997C12.5254 19.4794 13.0858 19.4794 13.4319 19.0997C13.4718 19.0559 13.5059 19.0082 13.5369 18.9586L22.3564 9.20046C22.7017 8.8203 22.7017 8.20407 22.3564 7.82345C22.0103 7.44329 21.4499 7.44329 21.1037 7.82345Z" fill="#3182F7"/>
</svg>
