<svg width="28" height="28" viewBox="0 0 28 28" fill="none" xmlns="http://www.w3.org/2000/svg">
<path d="M14 0C6.26806 0 0 6.26806 0 14C0 21.7324 6.26806 28 14 28C21.7324 28 28 21.7324 28 14C28 6.26806 21.7324 0 14 0ZM14 27C7.24544 27 1 20.7546 1 14C1 7.24544 7.24544 1 14 1C20.7546 1 27 7.24546 27 14C27 20.7545 20.7546 27 14 27ZM19.5873 8.87731L11.3732 17.143L7.67416 13.4439C7.33247 13.1023 6.7786 13.1023 6.43647 13.4439C6.09479 13.7856 6.09479 14.3395 6.43647 14.6812L10.7673 19.0124C11.109 19.3537 11.6628 19.3537 12.005 19.0124C12.0443 18.9731 12.0781 18.9302 12.1087 18.8856L20.8254 10.115C21.1667 9.77328 21.1667 9.21941 20.8254 8.87731C20.4833 8.53563 19.9294 8.53563 19.5873 8.87731Z" fill="#3182F7"/>
</svg>
