<svg width="16" height="16" viewBox="0 0 16 16" fill="none" xmlns="http://www.w3.org/2000/svg">
<path d="M0.5 12.375V15.5H3.625L12.8417 6.28329L9.71667 3.15829L0.5 12.375ZM15.2583 3.86663C15.3356 3.78953 15.3969 3.69796 15.4387 3.59715C15.4805 3.49634 15.502 3.38827 15.502 3.27913C15.502 3.16999 15.4805 3.06192 15.4387 2.96111C15.3969 2.8603 15.3356 2.76872 15.2583 2.69163L13.3083 0.741628C13.2312 0.664375 13.1397 0.603086 13.0389 0.561268C12.938 0.51945 12.83 0.497925 12.7208 0.497925C12.6117 0.497925 12.5036 0.51945 12.4028 0.561268C12.302 0.603086 12.2104 0.664375 12.1333 0.741628L10.6083 2.26663L13.7333 5.39163L15.2583 3.86663Z" fill="#434B60"/>
</svg>
