<svg width="20" height="20" viewBox="0 0 20 20" fill="none" xmlns="http://www.w3.org/2000/svg">
<path fill-rule="evenodd" clip-rule="evenodd" d="M6.17317 0.761205C7.38642 0.258658 8.68678 0 10 0C11.3132 0 12.6136 0.258658 13.8268 0.761205C15.0401 1.26375 16.1425 2.00035 17.0711 2.92893C17.9997 3.85752 18.7362 4.95991 19.2388 6.17317C19.7413 7.38642 20 8.68678 20 10C20 11.3132 19.7413 12.6136 19.2388 13.8268C18.7362 15.0401 17.9997 16.1425 17.0711 17.0711C16.1425 17.9997 15.0401 18.7362 13.8268 19.2388C12.6136 19.7413 11.3132 20 10 20C8.68678 20 7.38642 19.7413 6.17317 19.2388C4.95991 18.7362 3.85752 17.9997 2.92893 17.0711C2.00035 16.1425 1.26375 15.0401 0.761205 13.8268C0.258658 12.6136 0 11.3132 0 10C0 8.68678 0.258658 7.38642 0.761205 6.17317C1.26375 4.95991 2.00035 3.85752 2.92893 2.92893C3.85752 2.00035 4.95991 1.26375 6.17317 0.761205ZM2.83378 13.556C3.21907 14.3325 3.72854 15.0422 4.34315 15.6569C4.95798 16.2717 5.66805 16.7813 6.44482 17.1666C6.37971 17.0365 6.31735 16.9042 6.25776 16.7701C5.9529 16.0842 5.70102 15.3172 5.50481 14.4965C4.67363 14.2975 3.90787 14.0437 3.23018 13.7426C3.09546 13.6827 2.96321 13.6205 2.83378 13.556ZM5.12859 12.3204C4.73724 12.1981 4.37379 12.0622 4.04232 11.9149C3.30433 11.587 2.76902 11.2224 2.43173 10.868C2.09938 10.5187 2 10.2272 2 10C2 9.77283 2.09938 9.48127 2.43173 9.13205C2.76902 8.77764 3.30433 8.41302 4.04232 8.08509C4.37379 7.9378 4.73723 7.80187 5.12858 7.67964C5.04341 8.4367 5 9.21574 5 10C5 10.7843 5.04341 11.5633 5.12859 12.3204ZM7.68053 14.8725C7.80151 15.2604 7.93692 15.6238 8.08538 15.9578C8.80178 17.5697 9.57258 18 10 18C10.4274 18 11.1982 17.5697 11.9146 15.9578C12.0631 15.6238 12.1985 15.2604 12.3195 14.8725C11.5729 14.9562 10.7957 15 10 15C9.20428 15 8.42714 14.9562 7.68053 14.8725ZM12.7914 12.7929C11.9249 12.9261 10.9859 13 10 13C9.01409 13 8.07508 12.9261 7.20856 12.7929C7.07289 11.9115 7 10.9686 7 10C7 9.0314 7.07289 8.0885 7.20856 7.20714C8.07508 7.07393 9.01409 7 10 7C10.9859 7 11.9249 7.07393 12.7914 7.20714C12.9271 8.0885 13 9.0314 13 10C13 10.9686 12.9271 11.9115 12.7914 12.7929ZM14.4952 14.4965C14.299 15.3172 14.0471 16.0842 13.7422 16.7701C13.6827 16.9042 13.6203 17.0365 13.5552 17.1666C14.3319 16.7813 15.042 16.2717 15.6569 15.6569C16.2715 15.0422 16.7809 14.3325 17.1662 13.556C17.0368 13.6205 16.9045 13.6827 16.7698 13.7426C16.0921 14.0437 15.3264 14.2975 14.4952 14.4965ZM18 10C18 10.2272 17.9006 10.5187 17.5683 10.868C17.231 11.2224 16.6957 11.587 15.9577 11.9149C15.6262 12.0622 15.2628 12.1981 14.8714 12.3204C14.9566 11.5633 15 10.7843 15 10C15 9.21574 14.9566 8.4367 14.8714 7.67964C15.2628 7.80187 15.6262 7.9378 15.9577 8.08509C16.6957 8.41302 17.231 8.77764 17.5683 9.13205C17.9006 9.48127 18 9.77283 18 10ZM17.1662 6.44398C16.7809 5.66753 16.2715 4.95775 15.6569 4.34315C15.042 3.72832 14.332 3.2187 13.5552 2.83336C13.6203 2.96348 13.6827 3.09583 13.7422 3.2299C14.0471 3.91584 14.299 4.68285 14.4952 5.50351C15.3264 5.70248 16.0921 5.95627 16.7698 6.25741C16.9045 6.31727 17.0368 6.37946 17.1662 6.44398ZM12.3195 5.12748C12.1985 4.73963 12.0631 4.37622 11.9146 4.04218C11.1982 2.4303 10.4274 2 10 2C9.57258 2 8.80178 2.4303 8.08538 4.04218C7.93692 4.37622 7.80151 4.73963 7.68053 5.12748C8.42713 5.04381 9.20428 5 10 5C10.7957 5 11.5729 5.04381 12.3195 5.12748ZM5.50481 5.50351C4.67363 5.70248 3.90787 5.95627 3.23018 6.25741C3.09546 6.31727 2.96321 6.37946 2.83378 6.44397C3.21907 5.66753 3.72854 4.95775 4.34315 4.34315C4.95798 3.72832 5.66805 3.2187 6.44482 2.83336C6.37971 2.96348 6.31735 3.09583 6.25776 3.2299C5.9529 3.91584 5.70102 4.68285 5.50481 5.50351Z" fill="#434B60"/>
</svg>
