<svg width="28" height="28" viewBox="0 0 28 28" fill="none" xmlns="http://www.w3.org/2000/svg">
<path fill-rule="evenodd" clip-rule="evenodd" d="M8.64243 1.06569C10.341 0.362121 12.1615 0 14 0C15.8385 0 17.659 0.362121 19.3576 1.06569C21.0561 1.76925 22.5995 2.80049 23.8995 4.1005C25.1995 5.40052 26.2307 6.94387 26.9343 8.64243C27.6379 10.341 28 12.1615 28 14C28 15.8385 27.6379 17.659 26.9343 19.3576C26.2307 21.0561 25.1995 22.5995 23.8995 23.8995C22.5995 25.1995 21.0561 26.2307 19.3576 26.9343C17.659 27.6379 15.8385 28 14 28C12.1615 28 10.341 27.6379 8.64243 26.9343C6.94387 26.2307 5.40052 25.1995 4.1005 23.8995C2.80048 22.5995 1.76925 21.0561 1.06569 19.3576C0.362121 17.659 0 15.8385 0 14C0 12.1615 0.362121 10.341 1.06569 8.64243C1.76925 6.94387 2.80048 5.40053 4.1005 4.1005C5.40053 2.80048 6.94387 1.76925 8.64243 1.06569ZM3.9673 18.9784C4.5067 20.0655 5.21995 21.0591 6.0804 21.9196C6.94117 22.7804 7.93527 23.4938 9.02275 24.0333C8.93159 23.8511 8.84429 23.6658 8.76087 23.4781C8.33406 22.5178 7.98143 21.444 7.70673 20.2951C6.54308 20.0165 5.47101 19.6612 4.52225 19.2396C4.33364 19.1558 4.1485 19.0688 3.9673 18.9784ZM7.18002 17.2485C6.63213 17.0774 6.1233 16.8871 5.65925 16.6809C4.62606 16.2218 3.87662 15.7113 3.40443 15.2151C2.93913 14.7262 2.8 14.318 2.8 14C2.8 13.682 2.93913 13.2738 3.40443 12.7849C3.87662 12.2887 4.62606 11.7782 5.65925 11.3191C6.1233 11.1129 6.63213 10.9226 7.18002 10.7515C7.06077 11.8114 7 12.902 7 14C7 15.098 7.06078 16.1886 7.18002 17.2485ZM10.7527 20.8215C10.9221 21.3645 11.1117 21.8733 11.3195 22.341C12.3225 24.5976 13.4016 25.2 14 25.2C14.5984 25.2 15.6775 24.5976 16.6805 22.341C16.8883 21.8733 17.0779 21.3645 17.2473 20.8215C16.202 20.9387 15.114 21 14 21C12.886 21 11.798 20.9387 10.7527 20.8215ZM17.908 17.91C16.6949 18.0965 15.3803 18.2 14 18.2C12.6197 18.2 11.3051 18.0965 10.092 17.91C9.90204 16.6761 9.8 15.356 9.8 14C9.8 12.644 9.90204 11.3239 10.092 10.09C11.3051 9.90351 12.6197 9.8 14 9.8C15.3803 9.8 16.6949 9.90351 17.908 10.09C18.098 11.3239 18.2 12.644 18.2 14C18.2 15.356 18.098 16.6761 17.908 17.91ZM20.2933 20.2951C20.0186 21.444 19.6659 22.5178 19.2391 23.4781C19.1557 23.6658 19.0684 23.8511 18.9772 24.0333C20.0647 23.4938 21.0588 22.7804 21.9196 21.9196C22.78 21.0591 23.4933 20.0655 24.0327 18.9784C23.8515 19.0688 23.6664 19.1558 23.4778 19.2396C22.529 19.6612 21.4569 20.0165 20.2933 20.2951ZM25.2 14C25.2 14.318 25.0609 14.7262 24.5956 15.2151C24.1234 15.7113 23.3739 16.2218 22.3407 16.6809C21.8767 16.8871 21.3679 17.0774 20.82 17.2485C20.9392 16.1886 21 15.098 21 14C21 12.902 20.9392 11.8114 20.82 10.7515C21.3679 10.9226 21.8767 11.1129 22.3407 11.3191C23.3739 11.7782 24.1234 12.2887 24.5956 12.7849C25.0609 13.2738 25.2 13.682 25.2 14ZM24.0327 9.02157C23.4933 7.93455 22.78 6.94085 21.9196 6.0804C21.0588 5.21964 20.0647 4.50618 18.9772 3.96671C19.0684 4.14887 19.1557 4.33416 19.2391 4.52186C19.6659 5.48217 20.0186 6.55599 20.2933 7.70492C21.4569 7.98347 22.529 8.33878 23.4778 8.76037C23.6664 8.84418 23.8515 8.93124 24.0327 9.02157ZM17.2473 7.17848C17.0779 6.63549 16.8883 6.12671 16.6805 5.65905C15.6775 3.40241 14.5984 2.8 14 2.8C13.4016 2.8 12.3225 3.40241 11.3195 5.65905C11.1117 6.12671 10.9221 6.63549 10.7527 7.17848C11.798 7.06134 12.886 7 14 7C15.114 7 16.202 7.06134 17.2473 7.17848ZM7.70673 7.70492C6.54308 7.98347 5.47101 8.33878 4.52225 8.76037C4.33364 8.84418 4.1485 8.93124 3.96729 9.02156C4.50669 7.93455 5.21996 6.94085 6.0804 6.0804C6.94117 5.21964 7.93527 4.50618 9.02275 3.96671C8.93159 4.14887 8.84429 4.33416 8.76087 4.52186C8.33406 5.48217 7.98143 6.55599 7.70673 7.70492Z" fill="url(#paint0_linear_1070_42)"/>
<defs>
<linearGradient id="paint0_linear_1070_42" x1="14" y1="0" x2="14" y2="28" gradientUnits="userSpaceOnUse">
<stop stop-color="#DDED4B"/>
<stop offset="1" stop-color="#0A9891"/>
</linearGradient>
</defs>
</svg>
