<svg width="32" height="26" viewBox="0 0 32 26" fill="none" xmlns="http://www.w3.org/2000/svg">
<path d="M5.63324 21.1928C5.15917 20.9285 4.78238 20.569 4.50286 20.1146C4.22334 19.6589 4.08359 19.1485 4.08359 18.5831V11.4979L1.14313 9.88418C0.874698 9.7258 0.67522 9.53818 0.544698 9.32131C0.414175 9.10445 0.350145 8.86443 0.352607 8.60127C0.35507 8.33811 0.420331 8.09809 0.548391 7.88123C0.676451 7.66436 0.875314 7.47674 1.14498 7.31835L13.7417 0.520004C13.9658 0.396952 14.1966 0.309231 14.4343 0.256842C14.6719 0.204453 14.9157 0.17765 15.1657 0.176431C15.4157 0.175213 15.6601 0.202017 15.899 0.256842C16.1379 0.311668 16.3693 0.398779 16.5934 0.518177L30.8543 8.16998C31.1153 8.32227 31.3123 8.51294 31.4453 8.74199C31.5795 8.97225 31.6467 9.2208 31.6467 9.48761V19.3562C31.6467 19.6145 31.558 19.8313 31.3807 20.0068C31.2034 20.1822 30.9842 20.2699 30.7231 20.2699C30.4621 20.2699 30.2423 20.1822 30.0638 20.0068C29.8852 19.8313 29.7972 19.6145 29.7996 19.3562V9.62833L26.2478 11.4979V18.5831C26.2478 19.1485 26.1081 19.6589 25.8285 20.1146C25.549 20.5703 25.1729 20.9297 24.7 21.1928L16.6008 25.5314C16.3718 25.6593 16.1379 25.75 15.899 25.8037C15.6601 25.8573 15.4157 25.8835 15.1657 25.8822C14.9157 25.881 14.6713 25.8548 14.4324 25.8037C14.1936 25.7525 13.9596 25.6611 13.7306 25.5295L5.63324 21.1928ZM14.739 15.1529C14.9053 15.2455 15.053 15.2918 15.1823 15.2918C15.3128 15.2918 15.4612 15.2455 15.6275 15.1529L27.7808 8.60127L15.6275 2.08618C15.4625 1.99237 15.3147 1.94546 15.1842 1.94546C15.0537 1.94546 14.9059 1.99237 14.7409 2.08618L2.55056 8.60127L14.739 15.1529ZM14.7039 23.9834C14.8702 24.0773 15.0241 24.1242 15.1657 24.1242C15.3073 24.1242 15.4612 24.0773 15.6275 23.9834L23.8689 19.5773C24.0585 19.4604 24.1939 19.3257 24.2752 19.1734C24.3565 19.0211 24.3983 18.8274 24.4008 18.5923V12.503L16.6119 16.7099C16.3817 16.8379 16.1477 16.9286 15.9101 16.9822C15.6749 17.0346 15.4267 17.0608 15.1657 17.0608C14.9047 17.0608 14.6559 17.0346 14.4195 16.9822C14.1831 16.9299 13.9497 16.8385 13.7195 16.7081L5.93061 12.5048V18.5941C5.93061 18.7817 5.97186 18.9639 6.05436 19.1405C6.13686 19.316 6.27292 19.4622 6.46255 19.5791L14.7039 23.9834Z" fill="#ACB2BB"/>
</svg>
