<svg xmlns="http://www.w3.org/2000/svg" width="28" height="28" viewBox="0 0 28 28" fill="none">
  <path d="M14 0C6.26806 0 0 6.26806 0 14C0 21.7324 6.26806 28 14 28C21.7324 28 28 21.7324 28 14C28 6.26806 21.7324 0 14 0ZM14 27C7.24544 27 1 20.7546 1 14C1 7.24544 7.24544 1 14 1C20.7546 1 27 7.24546 27 14C27 20.7545 20.7546 27 14 27Z" fill="#ACB2BB"/>
  <path d="M13.501 8.30769C12.3717 8.30769 11.4551 9.16923 11.4551 10.2308V10.3954C11.4551 10.7014 11.3258 10.9949 11.0955 11.2113C10.8653 11.4277 10.5531 11.5492 10.2275 11.5492C9.90198 11.5492 9.58975 11.4277 9.35954 11.2113C9.12933 10.9949 9 10.7014 9 10.3954V10.2308C9 9.1087 9.47421 8.03259 10.3183 7.23916C11.1624 6.44574 12.3073 6 13.501 6H13.6909C14.5714 6.00038 15.4306 6.25418 16.1531 6.72727C16.8756 7.20035 17.4267 7.87004 17.7322 8.64627C18.0377 9.4225 18.083 10.2681 17.862 11.0692C17.6411 11.8704 17.1644 12.5887 16.4962 13.1277L15.2359 14.1431C15.0778 14.2721 14.9508 14.4313 14.8633 14.6101C14.7758 14.7889 14.7298 14.9832 14.7285 15.18V16C14.7285 16.306 14.5992 16.5995 14.369 16.8159C14.1388 17.0323 13.8266 17.1538 13.501 17.1538C13.1754 17.1538 12.8632 17.0323 12.633 16.8159C12.4028 16.5995 12.2734 16.306 12.2734 16V15.18C12.2734 14.1077 12.771 13.0892 13.6368 12.3923L14.8988 11.3769C15.1867 11.1449 15.3921 10.8356 15.4874 10.4906C15.5827 10.1455 15.5632 9.78135 15.4316 9.44702C15.3 9.11269 15.0627 8.82427 14.7514 8.62058C14.4402 8.41689 14.0701 8.30769 13.6909 8.30769H13.501ZM13.501 21C13.9351 21 14.3514 20.8379 14.6583 20.5494C14.9653 20.2609 15.1377 19.8696 15.1377 19.4615C15.1377 19.0535 14.9653 18.6622 14.6583 18.3737C14.3514 18.0852 13.9351 17.9231 13.501 17.9231C13.0669 17.9231 12.6506 18.0852 12.3437 18.3737C12.0367 18.6622 11.8643 19.0535 11.8643 19.4615C11.8643 19.8696 12.0367 20.2609 12.3437 20.5494C12.6506 20.8379 13.0669 21 13.501 21Z" fill="#ACB2BB"/>
</svg>