<svg width="30" height="28" viewBox="0 0 30 28" fill="none" xmlns="http://www.w3.org/2000/svg">
<path d="M1 14.2022L13.8585 1.46843C14.0083 1.31993 14.1863 1.20212 14.3822 1.12175C14.578 1.04137 14.788 1 15 1C15.212 1 15.422 1.04137 15.6178 1.12175C15.8137 1.20212 15.9917 1.31993 16.1415 1.46843L29 14.2022M4.23077 11.0028V25.4003C4.23077 26.2833 4.95446 27 5.84615 27H11.7692V20.0679C11.7692 19.1848 12.4929 18.4681 13.3846 18.4681H16.6154C17.5071 18.4681 18.2308 19.1848 18.2308 20.0679V27H24.1538C25.0455 27 25.7692 26.2833 25.7692 25.4003V11.0028M9.61538 27H21.4615" stroke="#434b60" stroke-width="2" stroke-linecap="round" stroke-linejoin="round"/>
</svg>
