<svg width="25" height="25" viewBox="0 0 25 25" fill="none" xmlns="http://www.w3.org/2000/svg">
<g clip-path="url(#clip0_1021_19)">
<path fill-rule="evenodd" clip-rule="evenodd" d="M0.471536 2.36437C0.234964 2.11048 0.106173 1.77469 0.112295 1.42772C0.118416 1.08075 0.258973 0.749709 0.504354 0.504328C0.749734 0.258948 1.08078 0.118391 1.42775 0.112269C1.77471 0.106147 2.11051 0.234939 2.36439 0.47151L7.05904 5.16437C8.67868 4.2733 10.5233 3.64294 12.5001 3.64294C15.2358 3.64294 17.7144 4.85187 19.7055 6.2858C21.7019 7.7233 23.2822 9.44472 24.2394 10.6019L24.2465 10.6108C24.6751 11.1429 24.9001 11.8162 24.9001 12.5001C24.9001 13.184 24.6751 13.8572 24.2465 14.3894L24.2394 14.4001C23.0472 15.8514 21.7005 17.1687 20.2233 18.3287L24.5287 22.6358C24.7652 22.8897 24.894 23.2255 24.8879 23.5724C24.8818 23.9194 24.7412 24.2505 24.4959 24.4958C24.2505 24.7412 23.9194 24.8818 23.5725 24.8879C23.2255 24.894 22.8897 24.7652 22.6358 24.5287L0.471536 2.36437ZM16.1019 14.209C16.4551 13.4657 16.5697 12.6314 16.4297 11.8204C16.2898 11.0095 15.9023 10.2617 15.3204 9.6798C14.7385 9.0979 13.9907 8.71039 13.1798 8.57046C12.3688 8.43053 11.5344 8.54505 10.7912 8.8983L16.1019 14.209ZM0.762607 10.6019C1.33225 9.9108 2.12332 9.02151 3.09296 8.1108L15.7787 20.7965C14.724 21.1619 13.6163 21.3514 12.5001 21.3572C9.76439 21.3572 7.28582 20.1501 5.29475 18.7162C3.29832 17.2769 1.71796 15.5554 0.760821 14.4001L0.753678 14.3894C0.328761 13.8515 0.0984065 13.1856 0.100107 12.5001C0.100107 11.8162 0.325107 11.1429 0.753678 10.6108L0.762607 10.6019Z" fill="#434B60"/>
</g>
<defs>
<clipPath id="clip0_1021_19">
<rect width="25" height="25" fill="white"/>
</clipPath>
</defs>
</svg>
