<svg width="20" height="21" viewBox="0 0 20 21" fill="none" xmlns="http://www.w3.org/2000/svg">
<path d="M6.5 10.5C6.5 11.3284 5.82843 12 5 12C4.17157 12 3.5 11.3284 3.5 10.5C3.5 9.67157 4.17157 9 5 9C5.82843 9 6.5 9.67157 6.5 10.5Z" fill="#ACB2BB"/>
<path d="M11.5 10.5C11.5 11.3284 10.8284 12 10 12C9.17157 12 8.5 11.3284 8.5 10.5C8.5 9.67157 9.17157 9 10 9C10.8284 9 11.5 9.67157 11.5 10.5Z" fill="#ACB2BB"/>
<path d="M16.5 10.5C16.5 11.3284 15.8284 12 15 12C14.1716 12 13.5 11.3284 13.5 10.5C13.5 9.67157 14.1716 9 15 9C15.8284 9 16.5 9.67157 16.5 10.5Z" fill="#ACB2BB"/>
</svg>
