<svg width="33" height="33" viewBox="0 0 33 33" fill="none" xmlns="http://www.w3.org/2000/svg">
<path d="M22.5202 13.6077C22.5202 15.2875 21.8529 16.8984 20.6652 18.0861C19.4775 19.2738 17.8666 19.9411 16.1868 19.9411C14.5071 19.9411 12.8962 19.2738 11.7085 18.0861C10.5208 16.8984 9.85352 15.2875 9.85352 13.6077C9.85352 11.928 10.5208 10.3171 11.7085 9.1294C12.8962 7.94167 14.5071 7.27441 16.1868 7.27441C17.8666 7.27441 19.4775 7.94167 20.6652 9.1294C21.8529 10.3171 22.5202 11.928 22.5202 13.6077Z" fill="#434b60"/>
<path fill-rule="evenodd" clip-rule="evenodd" d="M15.5408 32.5952C7.09614 32.2563 0.353516 25.3023 0.353516 16.7745C0.353516 8.02975 7.4421 0.941162 16.1868 0.941162C24.9316 0.941162 32.0202 8.02975 32.0202 16.7745C32.0202 25.5192 24.9316 32.6078 16.1868 32.6078H15.9699C15.8264 32.6078 15.6833 32.6036 15.5408 32.5952ZM6.0266 26.7653C5.90822 26.4254 5.86792 26.0631 5.9087 25.7054C5.94949 25.3478 6.0703 25.0039 6.26218 24.6993C6.45406 24.3947 6.71207 24.1372 7.01707 23.946C7.32207 23.7548 7.66622 23.6347 8.02397 23.5947C14.1958 22.9115 18.2159 22.9732 24.3576 23.609C24.7159 23.6463 25.0609 23.7648 25.3664 23.9556C25.6718 24.1464 25.9298 24.4044 26.1205 24.7099C26.3112 25.0155 26.4297 25.3605 26.4669 25.7187C26.5041 26.077 26.4591 26.439 26.3352 26.7772C28.9676 24.114 30.4417 20.5191 30.4368 16.7745C30.4368 8.90454 24.0568 2.5245 16.1868 2.5245C8.31689 2.5245 1.93685 8.90454 1.93685 16.7745C1.93685 20.6663 3.49722 24.194 6.0266 26.7653Z" fill="#434b60"/>
</svg>
