<svg width="22" height="24" viewBox="0 0 22 24" fill="none" xmlns="http://www.w3.org/2000/svg">
<path d="M8.6665 21.7143H13.2379C13.2379 22.9714 12.2094 24 10.9522 24C9.69508 24 8.6665 22.9714 8.6665 21.7143ZM21.2379 19.4286V20.5714H0.666504V19.4286L2.95222 17.1429V10.2857C2.95222 6.74286 5.23793 3.65714 8.6665 2.62857V2.28571C8.6665 1.02857 9.69508 0 10.9522 0C12.2094 0 13.2379 1.02857 13.2379 2.28571V2.62857C16.6665 3.65714 18.9522 6.74286 18.9522 10.2857V17.1429L21.2379 19.4286ZM16.6665 10.2857C16.6665 7.08571 14.1522 4.57143 10.9522 4.57143C7.75222 4.57143 5.23793 7.08571 5.23793 10.2857V18.2857H16.6665V10.2857Z" fill="#ACB2BB"/>
</svg>
