<svg width="21" height="20" viewBox="0 0 21 20" fill="none" xmlns="http://www.w3.org/2000/svg">
<path d="M10.5 1H11.45C11.45 0.47533 11.0247 0.0500001 10.5 0.0500001V1ZM10.5 18.1V19.05C11.0247 19.05 11.45 18.6247 11.45 18.1H10.5ZM4.70452 13.749L5.53065 13.2799C5.36186 12.9827 5.04637 12.799 4.70452 12.799V13.749ZM1 12.799H0.0500001H1ZM1.95 5.27975V6.22975V5.27975ZM4.70452 5.27975V6.22975C5.04395 6.22975 5.35759 6.04865 5.52729 5.75469L4.70452 5.27975ZM14.9336 4.56711C14.5426 4.21721 13.942 4.25049 13.5921 4.64144C13.2422 5.0324 13.2755 5.63298 13.6664 5.98289L14.9336 4.56711ZM15.0999 6.15802L15.8676 5.59845L15.8668 5.59731L15.0999 6.15802ZM16.2 9.55L15.25 9.54752V9.55H16.2ZM15.1179 12.9178L15.8876 13.4746L15.8881 13.4739L15.1179 12.9178ZM13.6666 13.1169C13.2756 13.4667 13.2421 14.0673 13.5919 14.4584C13.9417 14.8494 14.5423 14.8829 14.9334 14.5331L13.6666 13.1169ZM14.8753 16.8976C14.4247 17.1665 14.2775 17.7497 14.5463 18.2002C14.8152 18.6507 15.3984 18.798 15.8489 18.5291L14.8753 16.8976ZM15.9906 0.657576C15.5444 0.381567 14.9589 0.519537 14.6829 0.965741C14.4069 1.41195 14.5449 1.99742 14.9911 2.27342L15.9906 0.657576ZM9.55 1V18.1H11.45V1H9.55ZM10.5 17.15C9.24238 17.15 8.03074 16.3088 7.04417 15.2702C6.56943 14.7704 6.18682 14.2668 5.92253 13.8866C5.791 13.6974 5.69033 13.541 5.62372 13.434C5.59045 13.3805 5.56578 13.3396 5.55012 13.3131C5.54229 13.2999 5.53671 13.2904 5.53345 13.2848C5.53182 13.282 5.53076 13.2801 5.53029 13.2793C5.53006 13.2789 5.52997 13.2787 5.53003 13.2789C5.53006 13.2789 5.53012 13.279 5.53023 13.2792C5.53028 13.2793 5.53038 13.2795 5.53041 13.2795C5.53052 13.2797 5.53065 13.2799 4.70452 13.749C3.8784 14.2181 3.87855 14.2183 3.8787 14.2186C3.87876 14.2187 3.87892 14.219 3.87905 14.2192C3.8793 14.2196 3.87959 14.2202 3.87992 14.2207C3.88058 14.2219 3.8814 14.2233 3.88236 14.225C3.88429 14.2284 3.88683 14.2328 3.88998 14.2382C3.89626 14.249 3.90497 14.2639 3.91605 14.2826C3.93819 14.3199 3.96985 14.3724 4.01063 14.4379C4.09211 14.5689 4.21042 14.7524 4.36245 14.9711C4.66528 15.4067 5.1081 15.9908 5.6666 16.5788C6.74653 17.7157 8.43262 19.05 10.5 19.05V17.15ZM4.70452 12.799H1.95V14.699H4.70452V12.799ZM1.95 12.799L1.95 12.799L0.606497 14.1425C0.962818 14.4988 1.44609 14.699 1.95 14.699V12.799ZM1.95 12.799V12.799H0.0500001C0.0500001 13.3029 0.250177 13.7862 0.606497 14.1425L1.95 12.799ZM1.95 12.799V6.22975H0.0500001V12.799H1.95ZM1.95 6.22975L0.606497 4.88625C0.250178 5.24257 0.0500001 5.72584 0.0500001 6.22975H1.95ZM1.95 6.22975H1.95V4.32975C1.44609 4.32975 0.962817 4.52993 0.606497 4.88625L1.95 6.22975ZM1.95 6.22975H4.70452V4.32975H1.95V6.22975ZM4.70452 5.27975C5.52729 5.75469 5.52716 5.75491 5.52704 5.75511C5.52702 5.75515 5.52691 5.75534 5.52686 5.75543C5.52675 5.75561 5.52668 5.75573 5.52665 5.75579C5.52658 5.7559 5.52666 5.75576 5.52689 5.75537C5.52734 5.7546 5.52838 5.75282 5.53 5.75008C5.53323 5.7446 5.53877 5.73527 5.54657 5.72234C5.56217 5.69647 5.58677 5.65628 5.61997 5.60382C5.68643 5.49877 5.78694 5.34519 5.9183 5.15933C6.18223 4.78587 6.56444 4.29096 7.03875 3.79981C8.02306 2.78055 9.23618 1.95 10.5 1.95V0.0500001C8.43882 0.0500001 6.75421 1.35933 5.67202 2.47994C5.11309 3.05872 4.66987 3.63375 4.36668 4.06275C4.21448 4.27811 4.09601 4.45889 4.01438 4.58789C3.97353 4.65245 3.9418 4.70421 3.91959 4.74104C3.90849 4.75945 3.89975 4.77415 3.89343 4.78487C3.89027 4.79022 3.88771 4.79459 3.88577 4.79792C3.88479 4.79959 3.88397 4.801 3.88331 4.80215C3.88297 4.80273 3.88268 4.80324 3.88242 4.80368C3.88229 4.8039 3.88213 4.80419 3.88206 4.8043C3.88191 4.80456 3.88176 4.80481 4.70452 5.27975ZM13.6664 5.98289C13.9137 6.20421 14.1371 6.45084 14.333 6.71874L15.8668 5.59731C15.5925 5.22225 15.2798 4.87697 14.9336 4.56711L13.6664 5.98289ZM14.3322 6.7176C14.9312 7.53936 15.2527 8.53064 15.25 9.54752L17.15 9.55248C17.1537 8.13166 16.7045 6.74664 15.8676 5.59845L14.3322 6.7176ZM15.25 9.55C15.25 10.6061 14.9139 11.5776 14.3478 12.3616L15.8881 13.4739C16.6824 12.3741 17.15 11.0152 17.15 9.55H15.25ZM14.3483 12.3609C14.1488 12.6366 13.9203 12.8901 13.6666 13.1169L14.9334 14.5331C15.2884 14.2155 15.6084 13.8606 15.8876 13.4746L14.3483 12.3609ZM15.8489 18.5291C18.9021 16.707 20.95 13.3679 20.95 9.55H19.05C19.05 12.6718 17.3776 15.4042 14.8753 16.8976L15.8489 18.5291ZM20.95 9.55C20.95 5.79107 18.9648 2.49733 15.9906 0.657576L14.9911 2.27342C17.429 3.78147 19.05 6.47653 19.05 9.55H20.95Z" fill="#434B60"/>
</svg>
