<svg width="60" height="60" viewBox="0 0 60 60" fill="none" xmlns="http://www.w3.org/2000/svg">
<path d="M60 30C60 46.5685 46.5685 60 30 60C13.4315 60 0 46.5685 0 30C0 13.4315 13.4315 0 30 0C46.5685 0 60 13.4315 60 30Z" fill="#3182F7"/>
<path d="M41.8913 22.65C41.4135 23.1252 40.9496 23.5865 40.9356 24.0477C40.8934 24.4949 41.3713 24.9562 41.8211 25.3894C42.4957 26.0883 43.1563 26.7172 43.1282 27.4021C43.1001 28.0869 42.3833 28.7997 41.6665 29.4985L35.8618 35.2848L33.8659 33.3002L39.8393 27.3741L38.49 26.0323L36.4942 28.003L31.2236 22.7618L36.6207 17.4088C37.1689 16.8637 38.0824 16.8637 38.6025 17.4088L41.8913 20.6793C42.4395 21.1965 42.4395 22.1049 41.8913 22.65ZM17 36.9201L30.4365 23.5445L35.7071 28.7857L22.2706 42.1613H17V36.9201Z" fill="white"/>
</svg>
