<svg width="30" height="30" viewBox="0 0 30 30" fill="none" xmlns="http://www.w3.org/2000/svg">
<path d="M11.6792 10.3726L18.2137 1.05884L25.8361 6.39896L23.0569 10.3726H11.6792ZM11.6792 10.3726H5.00391L10.4528 2.61088L14.9696 5.7157L11.6792 10.3726Z" stroke="#ACB2BB" stroke-width="2" stroke-linecap="round" stroke-linejoin="round"/>
<path d="M27.3891 10.3726H2.55204C1.69518 10.3726 1 11.0677 1 11.9246V27.448C1 28.3048 1.69518 29 2.55204 29H27.3891C28.246 29 28.9412 28.3048 28.9412 27.448V11.9246C28.9412 11.0677 28.246 10.3726 27.3891 10.3726Z" stroke="#ACB2BB" stroke-width="2" stroke-linecap="round" stroke-linejoin="round"/>
<path d="M21.179 16.5815H28.9407V22.7912H21.179C20.9751 22.7912 20.7732 22.751 20.5849 22.673C20.3965 22.5949 20.2254 22.4805 20.0813 22.3363C19.9371 22.1921 19.8228 22.021 19.7449 21.8326C19.6669 21.6442 19.6269 21.4423 19.627 21.2384V18.1343C19.627 17.7226 19.7904 17.3278 20.0815 17.0366C20.3725 16.7454 20.7673 16.5817 21.179 16.5815Z" stroke="#ACB2BB" stroke-width="2" stroke-linecap="round" stroke-linejoin="round"/>
</svg>
