<svg width="20" height="21" viewBox="0 0 20 21" fill="none" xmlns="http://www.w3.org/2000/svg">
  <path d="M9.99979 20.5C15.4609 20.5 20 15.9706 20 10.5C20 5.03903 15.4508 0.5 9.98975 0.5C4.51946 0.5 0 5.03903 0 10.5C0 15.9706 4.52908 20.5 9.99979 20.5ZM10.0002 18.8335C5.37199 18.8335 1.67535 15.1273 1.67535 10.5C1.67535 5.88191 5.36195 2.16653 9.98975 2.16653C14.6075 2.16653 18.323 5.88233 18.333 10.5C18.3426 15.1277 14.6171 18.8335 9.99937 18.8335M5.50961 13.549C5.50961 13.6963 5.58784 13.8628 5.70538 13.9903L7.69572 15.9706C7.93123 16.1764 8.1567 16.2843 8.37213 16.2843C8.60764 16.2843 8.82307 16.1864 9.04855 15.9706L11.0389 13.9803C11.1665 13.8431 11.2351 13.6959 11.2351 13.549C11.2351 13.2257 10.9799 12.9609 10.6662 12.9609C10.4704 12.9609 10.3231 13.0195 10.196 13.1571L9.67643 13.6766L8.94104 14.5195L8.98998 12.853V8.4022C8.98998 6.82352 9.76428 5.95093 11.1372 5.95093C12.4214 5.95093 13.284 6.83356 13.2744 8.14704C13.2647 9.43123 12.431 10.3038 11.2351 10.3038C10.941 10.3038 10.7938 10.2352 10.6076 10.2352C10.2939 10.2352 10.0588 10.4611 10.0588 10.7547C10.0588 10.9413 10.1274 11.0881 10.2349 11.1961C10.4411 11.3922 10.8038 11.5002 11.1958 11.5002C13.1765 11.5002 14.4803 10.1666 14.4803 8.14704C14.4803 6.1078 13.1275 4.71568 11.1372 4.71568C9.07825 4.71568 7.74466 6.1078 7.74466 8.29428V12.8626L7.80323 14.5195L7.06825 13.6862L6.5487 13.1667C6.49047 13.0996 6.41802 13.0463 6.33662 13.0107C6.25521 12.9751 6.1669 12.9581 6.0781 12.9609C5.76436 12.9609 5.50919 13.2257 5.50919 13.549" fill="#434B60" stroke="#434B60" stroke-width="0.5"/>
</svg>
