<svg width="21" height="23" viewBox="0 0 21 23" fill="none" xmlns="http://www.w3.org/2000/svg">
<path d="M3 11C3 15.1438 6.35625 18.5 10.5 18.5C11.8547 18.5 13.125 18.1391 14.2219 17.5109L10.8469 13.4609C10.3172 12.8234 10.4016 11.8766 11.0391 11.3469C11.6766 10.8172 12.6234 10.9016 13.1531 11.5391L16.4766 15.5281C17.4328 14.2719 18 12.7016 18 11C18 6.85625 14.6438 3.5 10.5 3.5C6.35625 3.5 3 6.85625 3 11ZM16.1672 19.8406C14.5312 20.8906 12.5859 21.5 10.5 21.5C4.70156 21.5 0 16.7984 0 11C0 5.20156 4.70156 0.5 10.5 0.5C16.2984 0.5 21 5.20156 21 11C21 13.6297 20.0344 16.0344 18.4359 17.8766L20.6531 20.5391C21.1828 21.1766 21.0984 22.1234 20.4609 22.6531C19.8234 23.1828 18.8766 23.0984 18.3469 22.4609L16.1625 19.8406H16.1672Z" fill="#5884F6"/>
</svg>
