<svg width="27" height="27" viewBox="0 0 27 27" fill="none" xmlns="http://www.w3.org/2000/svg">
<path d="M13.3727 0.294067C20.3685 0.294067 26.0394 6.13172 26.0394 13.3333C26.0394 20.5348 20.3685 26.3725 13.3727 26.3725C6.37692 26.3725 0.706055 20.5348 0.706055 13.3333C0.706055 6.13172 6.37692 0.294067 13.3727 0.294067ZM13.3727 18.549C13.0368 18.549 12.7146 18.6863 12.4771 18.9309C12.2395 19.1754 12.1061 19.5071 12.1061 19.8529C12.1061 20.1987 12.2395 20.5304 12.4771 20.7749C12.7146 21.0194 13.0368 21.1568 13.3727 21.1568C13.7087 21.1568 14.0308 21.0194 14.2684 20.7749C14.5059 20.5304 14.6394 20.1987 14.6394 19.8529C14.6394 19.5071 14.5059 19.1754 14.2684 18.9309C14.0308 18.6863 13.7087 18.549 13.3727 18.549ZM13.3727 6.16171C12.1549 6.16171 10.987 6.65971 10.1259 7.54614C9.26482 8.43257 8.78105 9.63483 8.78105 10.8884C8.78105 11.2343 8.91451 11.5659 9.15205 11.8104C9.3896 12.055 9.71178 12.1924 10.0477 12.1924C10.3837 12.1924 10.7058 12.055 10.9434 11.8104C11.1809 11.5659 11.3144 11.2343 11.3144 10.8884C11.3148 10.5038 11.4169 10.1266 11.6098 9.79716C11.8026 9.46774 12.0789 9.19857 12.409 9.0185C12.7392 8.83844 13.1107 8.75427 13.4838 8.77502C13.8569 8.79578 14.2174 8.92067 14.5268 9.13632C14.8362 9.35196 15.0827 9.65022 15.2399 9.99912C15.3971 10.348 15.4592 10.7344 15.4193 11.1168C15.3795 11.4992 15.2393 11.8633 15.0137 12.1699C14.7882 12.4765 14.4858 12.7142 14.1391 12.8574C13.2828 13.2094 12.1061 14.1117 12.1061 15.6151V15.9411C12.1061 16.2869 12.2395 16.6186 12.4771 16.8631C12.7146 17.1077 13.0368 17.245 13.3727 17.245C13.7087 17.245 14.0308 17.1077 14.2684 16.8631C14.5059 16.6186 14.6394 16.2869 14.6394 15.9411C14.6394 15.623 14.7027 15.4639 14.97 15.3283L15.0802 15.2761C16.0692 14.8666 16.889 14.1156 17.3991 13.1519C17.9092 12.1883 18.0777 11.072 17.8759 9.99444C17.674 8.91688 17.1143 7.94517 16.2927 7.24589C15.4711 6.54661 14.4388 6.16331 13.3727 6.16171Z" fill="#ACB2BB"/>
</svg>
