<svg width="60" height="60" viewBox="0 0 60 60" fill="none" xmlns="http://www.w3.org/2000/svg">
<path d="M60 30C60 46.5685 46.5685 60 30 60C13.4315 60 0 46.5685 0 30C0 13.4315 13.4315 0 30 0C46.5685 0 60 13.4315 60 30Z" fill="white"/>
<path d="M30 0C13.432 0 0 13.432 0 30C0 46.568 13.432 60 30 60C46.568 60 60 46.568 60 30C60 13.432 46.568 0 30 0ZM40.813 46L37.327 42.693C36.263 43.339 35.345 43.793 34.569 44.056C33.268 44.492 31.712 44.708 29.899 44.708C26.116 44.708 22.991 43.58 20.522 41.322C17.526 38.606 16.028 34.616 16.028 29.354C16.028 24.051 17.563 20.042 20.635 17.326C23.141 15.109 26.258 14 29.984 14C33.738 14 36.888 15.175 39.433 17.524C42.372 20.24 43.843 24.04 43.843 28.921C43.843 31.506 43.529 33.672 42.898 35.417C42.388 37.081 41.636 38.463 40.642 39.563L43.972 42.7L40.813 46Z" fill="#3182F7"/>
<path d="M29.945 19.1392C27.543 19.1392 25.627 19.9922 24.197 21.6982C22.767 23.4042 22.051 25.9572 22.051 29.3562C22.051 33.3322 23.076 36.1802 25.123 37.8992C26.449 39.0142 28.039 39.5722 29.889 39.5722C30.5673 39.5746 31.243 39.4885 31.899 39.3162C32.363 39.184 32.8172 39.0192 33.258 38.8232L30.32 36.0292L33.433 32.7772L36.382 35.5532C36.841 34.6092 37.163 33.7822 37.347 33.0742C37.636 32.0112 37.779 30.7712 37.779 29.3542C37.779 26.1002 37.113 23.5832 35.781 21.8052C34.449 20.0272 32.504 19.1392 29.945 19.1392Z" fill="#3182F7"/>
</svg>
