<svg width="23" height="24" viewBox="0 0 23 24" fill="none" xmlns="http://www.w3.org/2000/svg">
<path d="M21.5002 21.9821L16.7953 17.1609M16.7953 17.1609C17.6001 16.3363 18.2385 15.3572 18.6741 14.2797C19.1096 13.2022 19.3338 12.0474 19.3338 10.8811C19.3338 9.7148 19.1096 8.55994 18.6741 7.48244C18.2385 6.40493 17.6001 5.42589 16.7953 4.60121C15.9905 3.77652 15.0351 3.12235 13.9836 2.67603C12.932 2.22972 11.805 2 10.6669 2C9.52874 2 8.40173 2.22972 7.35021 2.67603C6.2987 3.12235 5.34327 3.77652 4.53847 4.60121C2.91312 6.26673 2 8.52567 2 10.8811C2 13.2365 2.91312 15.4954 4.53847 17.1609C6.16383 18.8265 8.36829 19.7622 10.6669 19.7622C12.9655 19.7622 15.1699 18.8265 16.7953 17.1609Z" stroke="#434B60" stroke-width="2.5" stroke-linecap="round" stroke-linejoin="round"/>
</svg>
