<svg width="12" height="9" viewBox="0 0 12 9" fill="none" xmlns="http://www.w3.org/2000/svg">
<path fill-rule="evenodd" clip-rule="evenodd" d="M12 4.45161C12 4.29762 11.9388 4.14993 11.8299 4.04104C11.721 3.93214 11.5734 3.87097 11.4194 3.87097H0.580645C0.426648 3.87097 0.278959 3.93214 0.170067 4.04104C0.0611749 4.14993 0 4.29762 0 4.45161C0 4.60561 0.0611749 4.7533 0.170067 4.86219C0.278959 4.97108 0.426648 5.03226 0.580645 5.03226H11.4194C11.5734 5.03226 11.721 4.97108 11.8299 4.86219C11.9388 4.7533 12 4.60561 12 4.45161ZM12 0.580645C12 0.426649 11.9388 0.278959 11.8299 0.170067C11.721 0.0611749 11.5734 0 11.4194 0H0.580645C0.426648 0 0.278959 0.0611749 0.170067 0.170067C0.0611749 0.278959 0 0.426649 0 0.580645C0 0.734642 0.0611749 0.882331 0.170067 0.991223C0.278959 1.10012 0.426648 1.16129 0.580645 1.16129H11.4194C11.5734 1.16129 11.721 1.10012 11.8299 0.991223C11.9388 0.882331 12 0.734642 12 0.580645ZM12 8.32258C12 8.16858 11.9388 8.0209 11.8299 7.912C11.721 7.80311 11.5734 7.74194 11.4194 7.74194H0.580645C0.426648 7.74194 0.278959 7.80311 0.170067 7.912C0.0611749 8.0209 0 8.16858 0 8.32258C0 8.47658 0.0611749 8.62427 0.170067 8.73316C0.278959 8.84205 0.426648 8.90323 0.580645 8.90323H11.4194C11.5734 8.90323 11.721 8.84205 11.8299 8.73316C11.9388 8.62427 12 8.47658 12 8.32258Z" fill="#ACB2BB"/>
</svg>
