<svg width="22" height="20" viewBox="0 0 22 20" fill="none" xmlns="http://www.w3.org/2000/svg">
<path d="M15.934 6.9461C15.6663 4.93498 14.6446 3.10063 13.0757 1.81421C11.5069 0.527783 9.50789 -0.114669 7.48329 0.0168397C5.4587 0.148348 3.55964 1.044 2.17036 2.52257C0.781074 4.00115 0.0053017 5.95224 0 7.9811C0 9.8731 0.657 11.6121 1.756 12.9821C2.564 13.9911 3 15.1061 3 16.2871V19.9811H12L12.001 16.9811H14C14.5304 16.9811 15.0391 16.7704 15.4142 16.3953C15.7893 16.0202 16 15.5115 16 14.9811V12.0521L17.96 11.2121C18.302 11.0661 18.332 10.7181 18.184 10.4851L15.934 6.9461ZM2 7.9811C1.99846 6.45632 2.57751 4.98816 3.61947 3.87494C4.66144 2.76171 6.08815 2.08695 7.6097 1.98777C9.13124 1.88858 10.6335 2.37241 11.8112 3.34093C12.9888 4.30946 13.7536 5.69003 13.95 7.2021L14.007 7.6441L15.55 10.0691L14 10.7331V14.9811H10.002L10 17.9811H5V16.2871C5 14.6481 4.409 13.0951 3.315 11.7311C2.4613 10.6679 1.99724 9.34459 2 7.9811ZM20.154 16.0831L18.489 14.9731C19.4766 13.4958 20.0025 11.7581 20 9.9811C20.003 8.20384 19.4774 6.46584 18.49 4.9881L20.154 3.8781C21.3611 5.68428 22.0037 7.80869 22 9.9811C22 12.2391 21.32 14.3371 20.154 16.0831Z" fill="#434B60"/>
</svg>
