<svg width="18" height="19" viewBox="0 0 18 19" fill="none" xmlns="http://www.w3.org/2000/svg">
<path d="M13.8436 16.4252L15.9697 8.92522C16.1125 8.42138 15.7328 7.92105 15.2076 7.92105H10.6614C10.3829 7.92105 10.1768 7.66282 10.2394 7.3923L10.4372 6.53793C10.6186 5.75422 10.6769 4.94722 10.6099 4.14571L10.5735 3.71028C10.5344 3.24316 10.3306 2.80497 9.99811 2.47353C9.69397 2.17033 9.28151 2 8.85138 2H8.75671C8.49657 2 8.2569 2.14059 8.13059 2.36727L7.07811 4.25588C6.60609 5.10295 5.90248 5.79895 5.0492 6.26296L2.4127 7.69664C2.15829 7.83496 2 8.10082 2 8.38972V16.2105C2 16.6466 2.35455 17 2.79191 17H13.0815C13.4359 17 13.7472 16.7652 13.8436 16.4252Z" stroke="#434B60" stroke-width="2.28571" stroke-linecap="round" stroke-linejoin="round"/>
</svg>
