<svg width="9" height="9" viewBox="0 0 9 9" fill="none" xmlns="http://www.w3.org/2000/svg">
<path d="M6.51001 7.73177L7.49915 4.23177C7.5656 3.99664 7.38894 3.76316 7.1446 3.76316H5.02955C4.89999 3.76316 4.80413 3.64265 4.83326 3.51641L4.92527 3.1177C5.00967 2.75197 5.03677 2.37537 5.00558 2.00133L4.98866 1.79813C4.97049 1.58014 4.87566 1.37565 4.72098 1.22098C4.57949 1.07949 4.38759 1 4.18749 1H4.14344C4.02242 1 3.91091 1.06561 3.85215 1.17139L3.3625 2.05274C3.1429 2.44804 2.81556 2.77284 2.41859 2.98938L1.192 3.65843C1.07364 3.72298 1 3.84705 1 3.98187V7.63158C1 7.83506 1.16495 8 1.36842 8H6.15548C6.32037 8 6.46518 7.89045 6.51001 7.73177Z" fill="#3182F7" stroke="#3182F7" stroke-linecap="round" stroke-linejoin="round"/>
</svg>
