<svg width="29" height="29" viewBox="0 0 29 29" fill="none" xmlns="http://www.w3.org/2000/svg">
<path d="M1 14.5H2.5M14.5 1V2.5M26.5 14.5H28M4.9 4.9L5.95 5.95M24.1 4.9L23.05 5.95M11.05 22H17.95M10 20.5C8.74071 19.5555 7.8105 18.2388 7.34115 16.7363C6.8718 15.2337 6.8871 13.6216 7.38488 12.1283C7.88266 10.635 8.83768 9.33609 10.1147 8.41568C11.3917 7.49528 12.9259 7 14.5 7C16.0741 7 17.6083 7.49528 18.8853 8.41568C20.1623 9.33609 21.1173 10.635 21.6151 12.1283C22.1129 13.6216 22.1282 15.2337 21.6589 16.7363C21.1895 18.2388 20.2593 19.5555 19 20.5C18.4144 21.0797 17.9734 21.7892 17.7128 22.5709C17.4522 23.3527 17.3793 24.1848 17.5 25C17.5 25.7956 17.1839 26.5587 16.6213 27.1213C16.0587 27.6839 15.2956 28 14.5 28C13.7044 28 12.9413 27.6839 12.3787 27.1213C11.8161 26.5587 11.5 25.7956 11.5 25C11.6207 24.1848 11.5478 23.3527 11.2872 22.5709C11.0266 21.7892 10.5856 21.0797 10 20.5Z" stroke="#ACB2BB" stroke-width="2" stroke-linecap="round" stroke-linejoin="round"/>
</svg>
