<svg width="25" height="25" viewBox="0 0 25 25" fill="none" xmlns="http://www.w3.org/2000/svg">
<g clip-path="url(#clip0_1021_17)">
<path fill-rule="evenodd" clip-rule="evenodd" d="M5.23755 6.23403C7.24291 4.7876 9.74291 3.57153 12.5 3.57153C15.2572 3.57153 17.7572 4.78939 19.7626 6.23403C21.7768 7.68403 23.3697 9.41975 24.334 10.5858L24.3429 10.5947C24.7733 11.1305 25 11.8108 25 12.5001C25 13.1894 24.7733 13.868 24.3429 14.4055L24.334 14.4144C23.3697 15.5805 21.7768 17.3162 19.7626 18.7662C17.7572 20.2144 15.2572 21.4287 12.5 21.4287C9.74291 21.4287 7.24291 20.2108 5.23755 18.768C3.22326 17.3144 1.63041 15.5787 0.66612 14.4126L0.657192 14.4037C0.227932 13.8624 -0.0038774 13.1909 4.90723e-05 12.5001C4.90723e-05 11.8108 0.226835 11.1322 0.657192 10.5947L0.66612 10.5858C1.63041 9.41975 3.22326 7.68403 5.23755 6.23403ZM12.5 16.518C13.0277 16.518 13.5501 16.414 14.0376 16.2121C14.5251 16.0102 14.968 15.7143 15.3411 15.3412C15.7142 14.9681 16.0101 14.5251 16.2121 14.0377C16.414 13.5502 16.5179 13.0277 16.5179 12.5001C16.5179 11.9725 16.414 11.45 16.2121 10.9625C16.0101 10.4751 15.7142 10.0321 15.3411 9.65905C14.968 9.28596 14.5251 8.99001 14.0376 8.78809C13.5501 8.58617 13.0277 8.48225 12.5 8.48225C11.4344 8.48225 10.4125 8.90556 9.659 9.65905C8.9055 10.4125 8.48219 11.4345 8.48219 12.5001C8.48219 13.5657 8.9055 14.5877 9.659 15.3412C10.4125 16.0947 11.4344 16.518 12.5 16.518Z" fill="#434B60"/>
</g>
<defs>
<clipPath id="clip0_1021_17">
<rect width="25" height="25" fill="white"/>
</clipPath>
</defs>
</svg>
