<svg width="26" height="30" viewBox="0 0 26 30" fill="none" xmlns="http://www.w3.org/2000/svg">
<path d="M21.5 16.4168H20.5367L17.7033 19.2501H20.4092L22.9167 22.0834H3.08333L5.605 19.2501H8.50917L5.67583 16.4168H4.5L0.25 20.6668V26.3334C0.25 27.0849 0.548511 27.8056 1.07986 28.3369C1.61122 28.8683 2.33189 29.1668 3.08333 29.1668H22.9167C23.6681 29.1668 24.3888 28.8683 24.9201 28.3369C25.4515 27.8056 25.75 27.0849 25.75 26.3334V20.6668L21.5 16.4168ZM20.0833 9.26261L13.0708 16.2751L8.04167 11.2601L15.0683 4.24761L20.0833 9.26261ZM14.0767 1.24428L5.0525 10.2684C4.92117 10.3995 4.81698 10.5552 4.74589 10.7266C4.6748 10.8979 4.6382 11.0817 4.6382 11.2672C4.6382 11.4527 4.6748 11.6364 4.74589 11.8078C4.81698 11.9792 4.92117 12.1349 5.0525 12.2659L12.065 19.2501C12.6175 19.8309 13.51 19.8309 14.0625 19.2501L23.0725 10.2684C23.2038 10.1374 23.308 9.98171 23.3791 9.81033C23.4502 9.63895 23.4868 9.45523 23.4868 9.26969C23.4868 9.08416 23.4502 8.90044 23.3791 8.72906C23.308 8.55768 23.2038 8.40201 23.0725 8.27094L16.06 1.25844C15.9322 1.12471 15.7788 1.01802 15.609 0.944692C15.4391 0.871365 15.2563 0.8329 15.0713 0.831578C14.8863 0.830257 14.703 0.866107 14.5321 0.937C14.3613 1.00789 14.2064 1.11239 14.0767 1.24428Z" fill="url(#paint0_linear_1070_35)"/>
<defs>
<linearGradient id="paint0_linear_1070_35" x1="13" y1="0.831543" x2="13" y2="29.1668" gradientUnits="userSpaceOnUse">
<stop stop-color="#FF8888"/>
<stop offset="1" stop-color="#6C47C9"/>
</linearGradient>
</defs>
</svg>
