<svg width="22" height="22" viewBox="0 0 22 22" fill="none" xmlns="http://www.w3.org/2000/svg">
<path d="M16.5 11.9167H15.8767L14.0433 13.7501H15.7942L17.4167 15.5834H4.58333L6.215 13.7501H8.09417L6.26083 11.9167H5.5L2.75 14.6667V18.3334C2.75 18.8196 2.94315 19.2859 3.28697 19.6297C3.63079 19.9736 4.0971 20.1667 4.58333 20.1667H17.4167C17.9029 20.1667 18.3692 19.9736 18.713 19.6297C19.0568 19.2859 19.25 18.8196 19.25 18.3334V14.6667L16.5 11.9167ZM15.5833 7.28755L11.0458 11.825L7.79167 8.58005L12.3383 4.04255L15.5833 7.28755ZM11.6967 2.09922L5.8575 7.93838C5.77252 8.02319 5.7051 8.12392 5.6591 8.23481C5.6131 8.3457 5.58943 8.46458 5.58943 8.58463C5.58943 8.70469 5.6131 8.82356 5.6591 8.93446C5.7051 9.04535 5.77252 9.14608 5.8575 9.23088L10.395 13.7501C10.7525 14.1259 11.33 14.1259 11.6875 13.7501L17.5175 7.93838C17.6025 7.85358 17.6699 7.75285 17.7159 7.64196C17.7619 7.53106 17.7856 7.41219 17.7856 7.29213C17.7856 7.17208 17.7619 7.0532 17.7159 6.94231C17.6699 6.83142 17.6025 6.73069 17.5175 6.64588L12.98 2.10838C12.8973 2.02185 12.7981 1.95281 12.6882 1.90537C12.5783 1.85792 12.46 1.83303 12.3403 1.83218C12.2206 1.83132 12.1019 1.85452 11.9914 1.90039C11.8808 1.94626 11.7806 2.01388 11.6967 2.09922Z" fill="#434B60"/>
</svg>
