<?xml version="1.0" encoding="UTF-8"?>
<svg id="_레이어_1" data-name="레이어 1" xmlns="http://www.w3.org/2000/svg" viewBox="0 0 1109.08 225.3">
  <defs>
    <style>
      .cls-1 {
        fill: #3182f7;
        stroke-width: 0px;
      }
    </style>
  </defs>
  <path class="cls-1" d="M108.9,220.5c-6.9-.6-10.5,0-19.5-.9-2.7-7.8-5.1-18.6-7.2-27.3-3.3-12.6-5.1-18.9-6.6-22.2-1.5-.3-2.7-.3-3.3-.3-1.2,0-5.4.3-6,.6-1.5,3.6-2.7,9.9-4.8,22.5-2.4,12.9-4.8,20.4-8.1,26.7-5.1,1.8-9,1.5-15.3,1.5-7.5-.3-17.4-.9-32.4-.6-4.5,0-5.7-.9-5.7-3.6,0-2.1.9-5.7,1.8-10.5,1.5-7.2,2.4-12,3.3-18.6,2.7-14.4,6.3-34.2,10.8-57.3,3.6-17.7,8.1-38.1,13.2-60,5.4-22.5,10.8-43.2,16.8-62.4l4.5-.3c1.8,0,4.2-.3,9.9-.3,6.9.3,16.5.3,35.4-1.8l25.2,108,22.8,106.2-7.5.9c-3,.3-7.2.9-11.4.9-5.4,0-10.8-.9-15.9-1.2ZM74.1,132h2.1c-1.8-17.1-3.6-50.1-5.4-60-.3,1.5-.9,7.5-1.2,10.2-1.2,10.5-2.1,22.2-2.4,27.3l-1.8,22.5h8.7Z"/>
  <path class="cls-1" d="M243,162.3c-4.8-.3-9.9-.3-15.3-.3-4.8,0-10.2-.3-15.3-.3-5.4,0-10.5-.3-15.6-.3-5.4,0-10.5,0-15.3-.3-9.6,0-18,0-24.9-.3-6.9-.3-10.5-.3-11.4-.3h-5.4c0-2.4,0-7.5.3-12.6,0-5.1,0-10.2.3-15.6,0-7.8,0-10.8.3-14.1v-8.7h143.7c.3,8.4,0,18.3-.3,26.7-.3,1.8-.3,4.2-.3,8.4,0,7.2.6,13.5,1.5,18h-17.4c-6.9,0-15,0-24.9-.3Z"/>
  <path class="cls-1" d="M296.7,222c-.6-15.6-.3-28.5-.3-48,.3-13.2.3-30,.3-54.3.3-28.2.3-59.4.3-102.6l4.5-1.5c3.9-.6,12-1.8,22.8-2.7,11.1-.9,24.6-1.5,38.7-2.1,5.7-.3,11.7-.3,17.4-.3,9.3,0,18.9.3,27.3.6,16.8,1.5,28.5,3,34.2,5.1v12.3c.3,6,.3,12.6.3,18.6,0,8.1,0,11.1-.3,13.8l-5.1,1.5c-3.6.3-7.8.3-12,.6-7.8.6-15.9.9-24.9,1.5-13.2.6-26.7,1.2-38.7,2.4-1.2,3.3-2.1,8.1-2.1,12,0,4.8,1.2,11.1,2.7,13.2,1.2.3,3.3.3,8.7.3,9,0,20.1-.6,24.6-.9h5.1c1.5,3.3,1.5,5.4,1.5,11.7,0,4.5,0,10.2-.3,16.2,0-.3-.3,8.7-.3,10.2,0,3.9.3,8.1.6,12.6,0,.3-6.9,2.1-6.3,2.1-25.5,4.8-25.8,5.1-33.3,5.1-1.2,14.4-1.8,27-2.1,41.1,0,5.4,0,10.8-.3,15.9v15.3c-6.9,1.2-25.5,1.8-39.6,1.8-9.6,0-16.8-.6-23.4-1.5Z"/>
  <path class="cls-1" d="M532.19,221.1c-8.4-.6-6.3-.9-15.6,0-.9-18.3-.6-40.8-.6-63.3,0-14.4,0-29.1.6-43.5.6-28.5,1.2-57,1.2-85.8V9.3c4.5-1.2,10.2-1.2,15.6-1.2,3.3,0,7.2,0,10.5.3,9,.3,17.4.9,24.9.6.3,8.7.3,17.4.3,26.7v10.8l.6,21,2.4-4.5c2.4-4.5,6.6-11.4,9.9-17.4,2.4-4.8,6.3-12,9.6-18,3.3-6.3,7.2-12.3,12-19.2,6.3.6,12.9.3,20.4.3h9.3c7.8,0,15.9.6,20.4,1.8-2.1,8.1-5.4,16.5-10.5,26.4-6.6,12.3-9.6,17.4-13.8,25.5-4.5,6.9-9.9,16.5-14.7,24.9-4.2,7.5-8.4,15.6-12.3,24.6l51.9,108c-8.4.9-30,1.5-39.6.9-2.7,0-5.7-.3-8.1-.3l-3.9-.6c-5.4-6-9.3-11.7-12.3-17.7-3.6-6.6-6.6-12.9-10.2-20.7l-9.3-20.1c0,6.3,0,12,.3,18.3,0,2.7.3,5.1.3,9.9,0,3.6,0,6.9.3,10.2v18.3c-13.2,3.6-19.5,3.6-27.3,3.6-4.5,0-8.4-.3-12.3-.6Z"/>
  <path class="cls-1" d="M668.39,220.8c1.8,0-9,.3-10.5.3.9-12.6,1.5-27,1.5-39.9-.3-13.2-.6-26.1-.9-38.7-.3-12.9-.6-25.5-.6-38.1s1.8-24.6,1.8-36.3v-2.1c7.5.6,23.4,1.2,24.9,1.2,4.5.3,9.6,0,16.2,0h10.5v2.4l-1.2,74.1c-.3,9.3-.6,18.9-.6,28.2,0,14.1.6,30.9,1.5,47.7-1.8,1.8-6.6,1.5-12.6,1.8h-13.2c-6.3-.3-12-.6-16.8-.6ZM659.09,26.4c-.6-7.5-.9-15.3-.6-24.6l51.6.9.3,7.8c0,1.5,0,3,.3,5.1,0,3.9.3,9.6.3,16.5v13.5c-1.8,2.1-5.4.3-10.2.9-1.5.3-3.9.3-7.5.3h-3.3c-4.2,0-8.4-.3-12.9-.6-6.6-.3-10.5-.3-17.4.6,0-6.3-.3-13.2-.6-20.4Z"/>
  <path class="cls-1" d="M736.48,220.8q-2.7,0-3.9.3h-6.6c1.2-14.7,1.8-31.5,1.8-46.8v-9c-.3-18.3-.9-36.3-1.5-54.6-.6-18.3-.9-36.3-.9-54.6-.3-17.7.6-36,2.7-56.1l51.3.9-.3,31.2c0,6-.3,12.3-.3,18.6s-.3,12.3-.3,18.6c-.3,13.2-.3,27-.3,41.1-.3,14.1-.3,27.9-.3,41.1s0,25.5.3,36.9c.3,11.7.6,21.3.9,29.4-1.8,1.8-6.6,3.3-12.6,3.6h-13.2c-6.3-.3-12-.6-16.8-.6Z"/>
  <path class="cls-1" d="M804.28,220.8q-2.7,0-3.9.3h-6.6c1.2-14.7,1.8-31.5,1.8-46.8v-9c-.3-18.3-.9-36.3-1.5-54.6-.6-18.3-.9-36.3-.9-54.6-.3-17.7.6-36,2.7-56.1l51.3.9-.3,31.2c0,6-.3,12.3-.3,18.6s-.3,12.3-.3,18.6c-.3,13.2-.3,27-.3,41.1-.3,14.1-.3,27.9-.3,41.1s0,25.5.3,36.9c.3,11.7.6,21.3.9,29.4-1.8,1.8-6.6,3.3-12.6,3.6h-13.2c-6.3-.3-12-.6-16.8-.6Z"/>
  <path class="cls-1" d="M905.38,224.1c-6.6-1.2-12.9-3-17.7-5.7-11.1-7.8-18.6-17.7-23.4-32.1-3-9.6-4.8-18.3-5.7-27.9-.9-7.2-1.2-14.4-.6-24,1.2-17.4,2.4-28.5,5.4-37.2,2.7-7.5,6.6-13.2,13.2-19.2,3.6-3.3,9.9-6.6,17.7-9.6,8.1-2.7,19.8-4.8,30-4.8,8.1,0,15.9.9,21.3,2.4,17.4,4.8,27.3,10.5,33.3,18.9,4.8,7.2,7.8,14.1,9.3,22.2,1.5,7.5,2.1,14.1,2.1,22.5,0,4.2-.3,8.1-.6,12.3l-3.9,1.5c-3.6,1.5-21.3,2.4-41.1,3-8.7.3-18,.6-25.5.3-3.6,0-7.2,0-9.9-.3v3.3c0,9,0,12.3.6,15.6.6,4.5,2.4,9,4.8,12.9,3.3,4.8,7.2,8.4,11.4,8.4,6,0,7.2-1.2,10.5-5.4,2.4-3,4.2-12,3.9-20.4h10.5c4.2,0,9.6-.3,15-.6,9.3-.3,16.2-.3,19.2.9l3.9,1.5c-.3,2.7-.6,6-.6,9-.9,10.8-1.5,15.6-2.1,20.7-1.5,9-2.7,12.9-6.9,18-5.1,6.6-14.7,11.4-26.4,13.5-5.4.9-14.1,1.5-22.2,1.5-9,0-19.2,0-25.5-1.2ZM913.48,119.7h6c3.6,0,8.1-.3,13.5-.3,6.3,0,10.8.3,13.5,0,0-9.3-1.8-13.5-6.6-18.9-2.4-2.7-5.1-4.2-10.2-4.2-15.6,0-17.7,6-19.8,19.2v4.2h3.6Z"/>
  <path class="cls-1" d="M1001.68,146.7c-.3-11.1-.3-22.2-.3-33.6,0-14.1,0-30,.6-44.4,5.4,0,6.9,0,9.6.3,8.4.3,11.7-.6,21.3-.6h20.4v7.2c3-1.8,5.4-2.1,7.5-2.7,2.7-.9,7.2-2.1,12.9-3.3,5.4-.6,18.6-1.2,24.3-1.2,3.6,0,7.2,0,11.1,2.1,0,4.2,0,14.4-.3,21.9v9.9c0,14.1,0,23.1.3,24.6l-6.9-2.1c-1.8-.6-2.4-.9-3.3-1.2-14.1-4.2-24.6-4.8-30.3-4.8-3.9,0-6.6.3-9,1.5-2.1,1.2-3.9,3.3-6,6.6-.9,1.8-1.8,7.2-1.5,12,.3,6.3.9,31.2.9,38.4v13.8c.3,9.9.3,21.9.3,27.6-6,1.8-6.9,2.1-8.1,2.4-2.4.3-4.2.6-6,.9-3.6.3-10.5.3-14.4,0-9-.3-11.4-.3-22.5,0,0-24.6-.3-50.7-.6-75.3Z"/>
</svg>