<svg width="10" height="10" viewBox="0 0 10 10" fill="none" xmlns="http://www.w3.org/2000/svg">
<path d="M10 5C10 6.32608 9.47322 7.59785 8.53553 8.53553C7.59785 9.47322 6.32608 10 5 10C3.67392 10 2.40215 9.47322 1.46447 8.53553C0.526784 7.59785 0 6.32608 0 5C0 3.67392 0.526784 2.40215 1.46447 1.46447C2.40215 0.526784 3.67392 0 5 0C6.32608 0 7.59785 0.526784 8.53553 1.46447C9.47322 2.40215 10 3.67392 10 5ZM3.4375 2.50125V7.5H4.23937V5.7275H5.28188C6.27063 5.7275 6.875 5.05 6.875 4.11625C6.875 3.19 6.27812 2.50125 5.28875 2.50125H3.4375ZM5.16875 5.04625C5.72688 5.04625 6.05563 4.70562 6.05563 4.11625C6.05563 3.52687 5.72688 3.19 5.16813 3.19H4.23625V5.04625H5.16875Z" fill="white"/>
</svg>
