<svg width="126" height="126" viewBox="0 0 126 126" fill="none" xmlns="http://www.w3.org/2000/svg">
<path fill-rule="evenodd" clip-rule="evenodd" d="M63.0001 21C55.654 20.9987 48.4361 22.9241 42.0668 26.584C35.6975 30.244 30.3995 35.5106 26.7016 41.858C23.0038 48.2054 21.0354 55.4117 20.9931 62.7576C20.9507 70.1035 22.8357 77.3321 26.4601 83.7217C28.9098 80.538 32.0588 77.9603 35.6638 76.1879C39.2687 74.4155 43.233 73.4958 47.2501 73.5H78.7501C82.7672 73.4958 86.7314 74.4155 90.3364 76.1879C93.9413 77.9603 97.0903 80.538 99.54 83.7217C103.164 77.3321 105.049 70.1035 105.007 62.7576C104.965 55.4117 102.996 48.2054 99.2985 41.858C95.6006 35.5106 90.3026 30.244 83.9333 26.584C77.564 22.9241 70.3461 20.9987 63.0001 21ZM104.701 94.899C105.359 94.0415 105.989 93.163 106.591 92.2635C112.411 83.6151 115.514 73.4245 115.5 63C115.5 34.0043 91.9958 10.5 63.0001 10.5C34.0043 10.5 10.5001 34.0043 10.5001 63C10.4835 74.533 14.2803 85.7479 21.2993 94.899L21.2731 94.9935L23.1368 97.1617C28.0607 102.918 34.1743 107.539 41.0563 110.705C47.9382 113.871 55.4248 115.507 63.0001 115.5C64.1341 115.5 65.2611 115.465 66.3811 115.395C75.8541 114.798 84.9854 111.63 92.7938 106.234C96.5282 103.658 99.9129 100.608 102.863 97.1617L104.727 94.9935L104.701 94.899ZM63.0001 31.5C58.8229 31.5 54.8168 33.1594 51.8631 36.1131C48.9094 39.0668 47.2501 43.0728 47.2501 47.25C47.2501 51.4272 48.9094 55.4332 51.8631 58.3869C54.8168 61.3406 58.8229 63 63.0001 63C67.1772 63 71.1833 61.3406 74.137 58.3869C77.0907 55.4332 78.7501 51.4272 78.7501 47.25C78.7501 43.0728 77.0907 39.0668 74.137 36.1131C71.1833 33.1594 67.1772 31.5 63.0001 31.5Z" fill="#434B60"/>
</svg>
