<svg width="76" height="63" viewBox="0 0 76 63" fill="none" xmlns="http://www.w3.org/2000/svg">
<rect x="0.5" y="0.5" width="75" height="61.5882" rx="9.5" fill="white" stroke="white"/>
<path d="M20.9927 52.7061V43.9788H24.487C25.129 43.9788 25.6645 44.074 26.0935 44.2643C26.5225 44.4546 26.8449 44.7188 27.0609 45.0569C27.2768 45.3921 27.3847 45.7785 27.3847 46.216C27.3847 46.5569 27.3165 46.8566 27.1802 47.1151C27.0438 47.3708 26.8563 47.5811 26.6177 47.7458C26.3819 47.9078 26.112 48.0228 25.808 48.091V48.1762C26.1404 48.1904 26.4515 48.2842 26.7412 48.4575C27.0339 48.6308 27.2711 48.8737 27.4529 49.1862C27.6347 49.4958 27.7256 49.8651 27.7256 50.2941C27.7256 50.7572 27.6106 51.1705 27.3805 51.5342C27.1532 51.895 26.8165 52.1805 26.3705 52.3907C25.9245 52.6009 25.3748 52.7061 24.7214 52.7061H20.9927ZM22.8378 51.1975H24.3421C24.8563 51.1975 25.2313 51.0995 25.4671 50.9035C25.7029 50.7046 25.8208 50.4404 25.8208 50.1109C25.8208 49.8694 25.7626 49.6563 25.6461 49.4717C25.5296 49.287 25.3634 49.1421 25.1475 49.037C24.9344 48.9319 24.6802 48.8793 24.3847 48.8793H22.8378V51.1975ZM22.8378 47.6308H24.2057C24.4586 47.6308 24.683 47.5867 24.879 47.4987C25.0779 47.4078 25.2341 47.2799 25.3478 47.1151C25.4643 46.9504 25.5225 46.7529 25.5225 46.5228C25.5225 46.2075 25.4103 45.9532 25.1859 45.76C24.9643 45.5668 24.6489 45.4703 24.2398 45.4703H22.8378V47.6308ZM31.8496 52.8339C31.1876 52.8339 30.6152 52.6933 30.1322 52.412C29.6521 52.1279 29.2814 51.733 29.02 51.2274C28.7586 50.7188 28.628 50.1294 28.628 49.4589C28.628 48.7828 28.7586 48.1918 29.02 47.6862C29.2814 47.1776 29.6521 46.7828 30.1322 46.5015C30.6152 46.2174 31.1876 46.0754 31.8496 46.0754C32.5115 46.0754 33.0825 46.2174 33.5626 46.5015C34.0456 46.7828 34.4177 47.1776 34.6791 47.6862C34.9405 48.1918 35.0711 48.7828 35.0711 49.4589C35.0711 50.1294 34.9405 50.7188 34.6791 51.2274C34.4177 51.733 34.0456 52.1279 33.5626 52.412C33.0825 52.6933 32.5115 52.8339 31.8496 52.8339ZM31.8581 51.4276C32.1592 51.4276 32.4106 51.3424 32.6123 51.172C32.814 50.9987 32.966 50.7629 33.0683 50.4646C33.1734 50.1663 33.226 49.8268 33.226 49.4461C33.226 49.0654 33.1734 48.7259 33.0683 48.4276C32.966 48.1294 32.814 47.8936 32.6123 47.7203C32.4106 47.547 32.1592 47.4603 31.8581 47.4603C31.5541 47.4603 31.2984 47.547 31.091 47.7203C30.8865 47.8936 30.7317 48.1294 30.6265 48.4276C30.5243 48.7259 30.4731 49.0654 30.4731 49.4461C30.4731 49.8268 30.5243 50.1663 30.6265 50.4646C30.7317 50.7629 30.8865 50.9987 31.091 51.172C31.2984 51.3424 31.5541 51.4276 31.8581 51.4276ZM38.118 52.8296C37.7004 52.8296 37.3283 52.7572 37.0015 52.6123C36.6748 52.4646 36.4163 52.2472 36.226 51.9603C36.0385 51.6705 35.9447 51.3097 35.9447 50.8779C35.9447 50.5143 36.0115 50.2089 36.145 49.9617C36.2785 49.7146 36.4604 49.5157 36.6905 49.3651C36.9206 49.2146 37.1819 49.1009 37.4746 49.0242C37.77 48.9475 38.0797 48.8936 38.4035 48.8623C38.7842 48.8225 39.091 48.7856 39.324 48.7515C39.5569 48.7146 39.726 48.6606 39.8311 48.5896C39.9362 48.5186 39.9888 48.4134 39.9888 48.2742V48.2487C39.9888 47.9788 39.9035 47.77 39.7331 47.6222C39.5655 47.4745 39.3268 47.4007 39.0172 47.4007C38.6905 47.4007 38.4305 47.4731 38.2373 47.618C38.0442 47.76 37.9163 47.939 37.8538 48.1549L36.1748 48.0186C36.2601 47.6208 36.4277 47.2771 36.6777 46.9873C36.9277 46.6947 37.2501 46.4703 37.645 46.314C38.0427 46.1549 38.503 46.0754 39.0257 46.0754C39.3893 46.0754 39.7373 46.118 40.0697 46.2032C40.405 46.2884 40.7018 46.4205 40.9604 46.5995C41.2217 46.7785 41.4277 47.0086 41.5783 47.2899C41.7288 47.5683 41.8041 47.9021 41.8041 48.2913V52.7061H40.0825V51.7984H40.0314C39.9263 52.0029 39.7856 52.1833 39.6095 52.3396C39.4334 52.493 39.2217 52.6137 38.9746 52.7018C38.7274 52.787 38.4419 52.8296 38.118 52.8296ZM38.6379 51.5768C38.905 51.5768 39.1408 51.5242 39.3453 51.4191C39.5498 51.3112 39.7104 51.1663 39.8268 50.9845C39.9433 50.8026 40.0015 50.5967 40.0015 50.3666V49.672C39.9447 49.7089 39.8666 49.743 39.7672 49.7742C39.6706 49.8026 39.5612 49.8296 39.439 49.8552C39.3169 49.8779 39.1947 49.8992 39.0726 49.9191C38.9504 49.9362 38.8396 49.9518 38.7402 49.966C38.5271 49.9972 38.341 50.047 38.1819 50.1151C38.0229 50.1833 37.8993 50.2757 37.8112 50.3921C37.7231 50.5058 37.6791 50.6478 37.6791 50.8183C37.6791 51.0654 37.7686 51.2544 37.9476 51.385C38.1294 51.5129 38.3595 51.5768 38.6379 51.5768ZM43.2125 52.7061V46.1606H44.9724V47.3026H45.0406C45.1599 46.8964 45.3602 46.5896 45.6415 46.3822C45.9227 46.172 46.2466 46.0668 46.6131 46.0668C46.704 46.0668 46.802 46.0725 46.9071 46.0839C47.0122 46.0953 47.1045 46.1109 47.1841 46.1308V47.7416C47.0988 47.716 46.981 47.6933 46.8304 47.6734C46.6798 47.6535 46.542 47.6436 46.417 47.6436C46.15 47.6436 45.9113 47.7018 45.7011 47.8183C45.4937 47.9319 45.329 48.091 45.2068 48.2955C45.0875 48.5001 45.0278 48.7359 45.0278 49.0029V52.7061H43.2125ZM50.2299 52.8126C49.7327 52.8126 49.2824 52.6847 48.879 52.4291C48.4785 52.1705 48.1603 51.7913 47.9245 51.2913C47.6915 50.7884 47.5751 50.172 47.5751 49.4418C47.5751 48.6918 47.6958 48.0683 47.9373 47.5711C48.1787 47.0711 48.4998 46.6975 48.9003 46.4504C49.3037 46.2004 49.7455 46.0754 50.2256 46.0754C50.5921 46.0754 50.8975 46.1379 51.1418 46.2629C51.389 46.385 51.5878 46.5384 51.7384 46.7231C51.8918 46.9049 52.0083 47.0839 52.0878 47.26H52.1432V43.9788H53.9543V52.7061H52.1645V51.6578H52.0878C52.0026 51.8396 51.8819 52.02 51.7256 52.199C51.5722 52.3751 51.3719 52.5214 51.1248 52.6379C50.8805 52.7544 50.5822 52.8126 50.2299 52.8126ZM50.8052 51.368C51.0978 51.368 51.3449 51.2884 51.5466 51.1294C51.7512 50.9674 51.9074 50.7416 52.0154 50.4518C52.1262 50.162 52.1816 49.8225 52.1816 49.4333C52.1816 49.0441 52.1276 48.7061 52.0197 48.4191C51.9117 48.1322 51.7555 47.9106 51.5509 47.7543C51.3464 47.5981 51.0978 47.52 50.8052 47.52C50.5069 47.52 50.2555 47.6009 50.0509 47.7629C49.8464 47.9248 49.6915 48.1492 49.5864 48.4362C49.4813 48.7231 49.4287 49.0555 49.4287 49.4333C49.4287 49.814 49.4813 50.1507 49.5864 50.4433C49.6944 50.733 49.8492 50.9603 50.0509 51.1251C50.2555 51.287 50.5069 51.368 50.8052 51.368Z" fill="#ACB2BB"/>
<path d="M48.2309 36.1949H25.5341V16.3352H39.1728L41.2361 14.5298H25.5341C24.9868 14.5298 24.462 14.72 24.075 15.0586C23.6881 15.3972 23.4707 15.8564 23.4707 16.3352V36.1949C23.4707 36.6738 23.6881 37.133 24.075 37.4716C24.462 37.8102 24.9868 38.0004 25.5341 38.0004H48.2309C48.7781 38.0004 49.3029 37.8102 49.6899 37.4716C50.0768 37.133 50.2942 36.6738 50.2942 36.1949V22.6542L48.2309 24.4597V36.1949Z" fill="#ACB2BB"/>
<path d="M52.0507 13.534L48.639 10.4869C48.4876 10.3513 48.3077 10.2437 48.1096 10.1703C47.9116 10.0969 47.6993 10.0591 47.4848 10.0591C47.2704 10.0591 47.0581 10.0969 46.86 10.1703C46.662 10.2437 46.4821 10.3513 46.3307 10.4869L32.4507 22.9557L31.327 27.3048C31.2791 27.5156 31.2841 27.7333 31.3417 27.9422C31.3993 28.1511 31.508 28.3459 31.66 28.5128C31.812 28.6797 32.0035 28.8144 32.2207 28.9073C32.438 29.0001 32.6756 29.0488 32.9164 29.0499C33.0409 29.0621 33.1665 29.0621 33.291 29.0499L38.2011 28.0824L52.0507 15.5955C52.2026 15.4603 52.323 15.2997 52.4052 15.1228C52.4874 14.9459 52.5297 14.7563 52.5297 14.5648C52.5297 14.3733 52.4874 14.1836 52.4052 14.0068C52.323 13.8299 52.2026 13.6692 52.0507 13.534ZM37.1482 26.4097L33.4429 27.1421L34.3034 23.8598L44.7514 14.4653L47.6063 17.0151L37.1482 26.4097ZM48.7503 15.9934L45.8954 13.4436L47.4646 12.015L50.3398 14.5829L48.7503 15.9934Z" fill="#ACB2BB"/>
</svg>
