<svg width="20" height="21" viewBox="0 0 20 21" fill="none" xmlns="http://www.w3.org/2000/svg">
<path d="M10 0C4.47719 0 0 4.54879 0 10.1599C0 15.7714 4.47719 20.3199 10 20.3199C15.5231 20.3199 20 15.7714 20 10.1599C20 4.54879 15.5231 0 10 0ZM10 19.0699C5.17531 19.0699 1.25 15.0618 1.25 10.1599C1.25 5.25805 5.17531 1.26995 10 1.26995C14.8247 1.26995 18.75 5.25807 18.75 10.1599C18.75 15.0617 14.8247 19.0699 10 19.0699ZM13.9909 6.44235L8.12373 12.4408L5.48154 9.7564C5.23748 9.50843 4.84186 9.50843 4.59748 9.7564C4.35342 10.0044 4.35342 10.4063 4.59748 10.6543L7.69092 13.7975C7.93498 14.0452 8.33061 14.0452 8.57498 13.7975C8.60311 13.7689 8.62719 13.7378 8.64906 13.7054L14.8753 7.34054C15.1191 7.09257 15.1191 6.69062 14.8753 6.44235C14.6309 6.19439 14.2353 6.19439 13.9909 6.44235Z" fill="#D9D9D9"/>
</svg>
