<svg width="76" height="63" viewBox="0 0 76 63" fill="none" xmlns="http://www.w3.org/2000/svg">
<rect x="0.5" y="0.5" width="75" height="61.5882" rx="9.5" fill="white" stroke="white"/>
<path d="M26.1797 46.7998C26.1201 46.5924 26.0363 46.4092 25.9283 46.2501C25.8204 46.0882 25.6883 45.9518 25.532 45.841C25.3786 45.7274 25.2025 45.6407 25.0036 45.5811C24.8076 45.5214 24.5902 45.4916 24.3516 45.4916C23.9056 45.4916 23.5135 45.6024 23.1755 45.824C22.8402 46.0455 22.5789 46.368 22.3914 46.7913C22.2039 47.2117 22.1101 47.7259 22.1101 48.3339C22.1101 48.9419 22.2025 49.4589 22.3871 49.885C22.5718 50.3112 22.8331 50.6365 23.1712 50.8609C23.5093 51.0825 23.9084 51.1933 24.3687 51.1933C24.7863 51.1933 25.1428 51.1194 25.4383 50.9717C25.7366 50.8211 25.9638 50.6095 26.1201 50.3367C26.2792 50.064 26.3587 49.7416 26.3587 49.3694L26.7337 49.4248H24.4837V48.0356H28.1357V49.135C28.1357 49.9021 27.9738 50.5612 27.6499 51.1123C27.326 51.6606 26.88 52.0839 26.3118 52.3822C25.7437 52.6776 25.0931 52.8254 24.3601 52.8254C23.5419 52.8254 22.8232 52.645 22.2039 52.2842C21.5846 51.9205 21.1016 51.4049 20.755 50.7373C20.4113 50.0669 20.2394 49.2714 20.2394 48.3509C20.2394 47.6436 20.3417 47.0129 20.5462 46.4589C20.7536 45.9021 21.0434 45.4305 21.4155 45.0441C21.7877 44.6578 22.2209 44.3637 22.7152 44.162C23.2096 43.9603 23.7451 43.8595 24.3218 43.8595C24.8161 43.8595 25.2763 43.9319 25.7025 44.0768C26.1286 44.2188 26.5064 44.4205 26.836 44.6819C27.1684 44.9433 27.4397 45.2543 27.6499 45.6151C27.8601 45.9731 27.9951 46.368 28.0547 46.7998H26.1797ZM29.4876 52.7061V46.1606H31.2476V47.3026H31.3157C31.4351 46.8964 31.6353 46.5896 31.9166 46.3822C32.1978 46.172 32.5217 46.0668 32.8882 46.0668C32.9791 46.0668 33.0771 46.0725 33.1822 46.0839C33.2873 46.0953 33.3797 46.1109 33.4592 46.1308V47.7416C33.374 47.716 33.2561 47.6933 33.1055 47.6734C32.9549 47.6535 32.8172 47.6436 32.6922 47.6436C32.4251 47.6436 32.1865 47.7018 31.9763 47.8183C31.7689 47.9319 31.6041 48.091 31.4819 48.2955C31.3626 48.5001 31.303 48.7359 31.303 49.0029V52.7061H29.4876ZM36.0767 52.8296C35.6591 52.8296 35.287 52.7572 34.9603 52.6123C34.6336 52.4646 34.375 52.2472 34.1847 51.9603C33.9972 51.6705 33.9035 51.3097 33.9035 50.8779C33.9035 50.5143 33.9702 50.2089 34.1037 49.9617C34.2373 49.7146 34.4191 49.5157 34.6492 49.3651C34.8793 49.2146 35.1407 49.1009 35.4333 49.0242C35.7287 48.9475 36.0384 48.8936 36.3623 48.8623C36.7429 48.8225 37.0498 48.7856 37.2827 48.7515C37.5157 48.7146 37.6847 48.6606 37.7898 48.5896C37.8949 48.5186 37.9475 48.4134 37.9475 48.2742V48.2487C37.9475 47.9788 37.8623 47.77 37.6918 47.6222C37.5242 47.4745 37.2856 47.4007 36.9759 47.4007C36.6492 47.4007 36.3892 47.4731 36.1961 47.618C36.0029 47.76 35.875 47.939 35.8125 48.1549L34.1336 48.0186C34.2188 47.6208 34.3864 47.2771 34.6364 46.9873C34.8864 46.6947 35.2089 46.4703 35.6037 46.314C36.0015 46.1549 36.4617 46.0754 36.9844 46.0754C37.3481 46.0754 37.6961 46.118 38.0285 46.2032C38.3637 46.2884 38.6606 46.4205 38.9191 46.5995C39.1804 46.7785 39.3864 47.0086 39.537 47.2899C39.6875 47.5683 39.7628 47.9021 39.7628 48.2913V52.7061H38.0412V51.7984H37.9901C37.885 52.0029 37.7444 52.1833 37.5682 52.3396C37.3921 52.493 37.1804 52.6137 36.9333 52.7018C36.6861 52.787 36.4006 52.8296 36.0767 52.8296ZM36.5966 51.5768C36.8637 51.5768 37.0995 51.5242 37.304 51.4191C37.5086 51.3112 37.6691 51.1663 37.7856 50.9845C37.902 50.8026 37.9603 50.5967 37.9603 50.3666V49.672C37.9035 49.7089 37.8253 49.743 37.7259 49.7742C37.6293 49.8026 37.5199 49.8296 37.3978 49.8552C37.2756 49.8779 37.1535 49.8992 37.0313 49.9191C36.9091 49.9362 36.7983 49.9518 36.6989 49.966C36.4858 49.9972 36.2998 50.047 36.1407 50.1151C35.9816 50.1833 35.858 50.2757 35.7699 50.3921C35.6819 50.5058 35.6378 50.6478 35.6378 50.8183C35.6378 51.0654 35.7273 51.2544 35.9063 51.385C36.0881 51.5129 36.3182 51.5768 36.5966 51.5768ZM43.5831 52.8126C43.086 52.8126 42.6357 52.6847 42.2323 52.4291C41.8317 52.1705 41.5135 51.7913 41.2777 51.2913C41.0448 50.7884 40.9283 50.172 40.9283 49.4418C40.9283 48.6918 41.0491 48.0683 41.2905 47.5711C41.532 47.0711 41.853 46.6975 42.2536 46.4504C42.657 46.2004 43.0988 46.0754 43.5789 46.0754C43.9454 46.0754 44.2508 46.1379 44.4951 46.2629C44.7422 46.385 44.9411 46.5384 45.0917 46.7231C45.2451 46.9049 45.3616 47.0839 45.4411 47.26H45.4965V43.9788H47.3076V52.7061H45.5178V51.6578H45.4411C45.3559 51.8396 45.2351 52.02 45.0789 52.199C44.9255 52.3751 44.7252 52.5214 44.478 52.6379C44.2337 52.7544 43.9354 52.8126 43.5831 52.8126ZM44.1584 51.368C44.451 51.368 44.6982 51.2884 44.8999 51.1294C45.1044 50.9674 45.2607 50.7416 45.3687 50.4518C45.4794 50.162 45.5348 49.8225 45.5348 49.4333C45.5348 49.0441 45.4809 48.7061 45.3729 48.4191C45.265 48.1322 45.1087 47.9106 44.9042 47.7543C44.6996 47.5981 44.451 47.52 44.1584 47.52C43.8601 47.52 43.6087 47.6009 43.4042 47.7629C43.1996 47.9248 43.0448 48.1492 42.9397 48.4362C42.8346 48.7231 42.782 49.0555 42.782 49.4333C42.782 49.814 42.8346 50.1507 42.9397 50.4433C43.0476 50.733 43.2025 50.9603 43.4042 51.1251C43.6087 51.287 43.8601 51.368 44.1584 51.368ZM51.7831 52.8339C51.1098 52.8339 50.5302 52.6975 50.0444 52.4248C49.5615 52.1492 49.1893 51.76 48.928 51.2572C48.6666 50.7515 48.5359 50.1535 48.5359 49.4632C48.5359 48.7899 48.6666 48.199 48.928 47.6904C49.1893 47.1819 49.5572 46.7856 50.0316 46.5015C50.5089 46.2174 51.0686 46.0754 51.7106 46.0754C52.1424 46.0754 52.5444 46.145 52.9166 46.2842C53.2916 46.4205 53.6183 46.6265 53.8967 46.9021C54.178 47.1776 54.3967 47.5242 54.553 47.9418C54.7092 48.3566 54.7873 48.8424 54.7873 49.3992V49.8978H49.2603V48.7728H53.0785C53.0785 48.5115 53.0217 48.2799 52.9081 48.0782C52.7944 47.8765 52.6368 47.7188 52.4351 47.6052C52.2362 47.4887 52.0047 47.4305 51.7405 47.4305C51.4649 47.4305 51.2206 47.4944 51.0075 47.6222C50.7973 47.7472 50.6325 47.9163 50.5132 48.1293C50.3939 48.3396 50.3328 48.574 50.3299 48.8325V49.9021C50.3299 50.2259 50.3896 50.5058 50.5089 50.7416C50.6311 50.9774 50.803 51.1592 51.0245 51.287C51.2461 51.4149 51.5089 51.4788 51.8129 51.4788C52.0146 51.4788 52.1993 51.4504 52.3669 51.3936C52.5345 51.3367 52.678 51.2515 52.7973 51.1379C52.9166 51.0242 53.0075 50.885 53.07 50.7203L54.749 50.8311C54.6638 51.2345 54.489 51.5867 54.2248 51.8879C53.9635 52.1862 53.6254 52.4191 53.2106 52.5867C52.7987 52.7515 52.3228 52.8339 51.7831 52.8339Z" fill="#ACB2BB"/>
<path d="M27.6337 32.804C27.1597 32.543 26.7829 32.1881 26.5033 31.7395C26.2238 31.2897 26.0841 30.7857 26.0841 30.2276V23.2329L23.1436 21.6399C22.8752 21.4835 22.6757 21.2983 22.5452 21.0842C22.4147 20.8701 22.3506 20.6331 22.3531 20.3733C22.3556 20.1135 22.4208 19.8766 22.5489 19.6625C22.6769 19.4484 22.8758 19.2632 23.1455 19.1068L35.7421 12.3954C35.9662 12.2739 36.1971 12.1873 36.4348 12.1356C36.6724 12.0839 36.9162 12.0574 37.1662 12.0562C37.4162 12.055 37.6606 12.0814 37.8995 12.1356C38.1383 12.1897 38.3698 12.2757 38.5939 12.3936L52.8548 19.9476C53.1158 20.0979 53.3128 20.2861 53.4458 20.5123C53.58 20.7396 53.6471 20.985 53.6471 21.2484V30.9908C53.6471 31.2458 53.5585 31.4599 53.3812 31.6331C53.2039 31.8063 52.9847 31.8929 52.7236 31.8929C52.4626 31.8929 52.2428 31.8063 52.0642 31.6331C51.8857 31.4599 51.7977 31.2458 51.8001 30.9908V21.3873L48.2483 23.2329V30.2276C48.2483 30.7857 48.1086 31.2897 47.829 31.7395C47.5495 32.1894 47.1733 32.5442 46.7005 32.804L38.6013 37.087C38.3723 37.2133 38.1383 37.3029 37.8995 37.3558C37.6606 37.4088 37.4162 37.4346 37.1662 37.4334C36.9162 37.4322 36.6718 37.4064 36.4329 37.3558C36.194 37.3053 35.9601 37.2151 35.7311 37.0852L27.6337 32.804ZM36.7395 26.8412C36.9058 26.9326 37.0535 26.9784 37.1828 26.9784C37.3133 26.9784 37.4617 26.9326 37.6279 26.8412L49.7813 20.3733L37.6279 13.9415C37.4629 13.8489 37.3152 13.8026 37.1847 13.8026C37.0541 13.8026 36.9064 13.8489 36.7414 13.9415L24.551 20.3733L36.7395 26.8412ZM36.7044 35.5589C36.8707 35.6515 37.0246 35.6978 37.1662 35.6978C37.3078 35.6978 37.4617 35.6515 37.6279 35.5589L45.8693 31.2091C46.059 31.0936 46.1944 30.9607 46.2757 30.8104C46.357 30.66 46.3988 30.4688 46.4013 30.2367V24.2252L38.6124 28.3784C38.3821 28.5047 38.1482 28.5943 37.9105 28.6472C37.6754 28.6989 37.4272 28.7248 37.1662 28.7248C36.9051 28.7248 36.6564 28.6989 36.42 28.6472C36.1836 28.5955 35.9502 28.5053 35.72 28.3766L27.9311 24.227V30.2385C27.9311 30.4237 27.9723 30.6035 28.0548 30.7779C28.1373 30.9511 28.2734 31.0954 28.463 31.2109L36.7044 35.5589Z" fill="#ACB2BB"/>
</svg>
