<svg width="76" height="63" viewBox="0 0 76 63" fill="none" xmlns="http://www.w3.org/2000/svg">
<rect x="0.5" y="0.5" width="75" height="61.5882" rx="9.5" fill="white" stroke="white"/>
<path d="M44.5197 21.6077C44.5197 23.2875 43.8524 24.8984 42.6647 26.0861C41.477 27.2738 39.8661 27.9411 38.1864 27.9411C36.5067 27.9411 34.8957 27.2738 33.708 26.0861C32.5203 24.8984 31.853 23.2875 31.853 21.6077C31.853 19.928 32.5203 18.3171 33.708 17.1294C34.8957 15.9417 36.5067 15.2744 38.1864 15.2744C39.8661 15.2744 41.477 15.9417 42.6647 17.1294C43.8524 18.3171 44.5197 19.928 44.5197 21.6077Z" fill="#ACB2BB"/>
<path fill-rule="evenodd" clip-rule="evenodd" d="M37.5404 40.5949C29.0957 40.2561 22.353 33.3021 22.353 24.7743C22.353 16.0295 29.4416 8.94092 38.1864 8.94092C46.9311 8.94092 54.0197 16.0295 54.0197 24.7743C54.0197 33.519 46.9311 40.6076 38.1864 40.6076H37.9694C37.8259 40.6076 37.6829 40.6034 37.5404 40.5949ZM28.0261 34.7651C27.9077 34.4251 27.8674 34.0629 27.9082 33.7052C27.949 33.3475 28.0698 33.0036 28.2617 32.699C28.4536 32.3945 28.7116 32.137 29.0166 31.9458C29.3216 31.7545 29.6657 31.6345 30.0235 31.5945C36.1953 30.9113 40.2154 30.973 46.3572 31.6087C46.7154 31.646 47.0604 31.7646 47.3659 31.9554C47.6714 32.1462 47.9293 32.4041 48.12 32.7097C48.3107 33.0152 48.4292 33.3602 48.4664 33.7185C48.5036 34.0767 48.4586 34.4387 48.3347 34.777C50.9671 32.1138 52.4412 28.5188 52.4364 24.7743C52.4364 16.9043 46.0563 10.5243 38.1864 10.5243C30.3164 10.5243 23.9364 16.9043 23.9364 24.7743C23.9364 28.6661 25.4967 32.1937 28.0261 34.7651Z" fill="#ACB2BB"/>
<path d="M13.6202 44.3509H15.8958L18.2992 50.2145H18.4015L20.8049 44.3509H23.0805V53.0781H21.2907V47.3977H21.2183L18.9597 53.0355H17.741L15.4825 47.3764H15.41V53.0781H13.6202V44.3509ZM25.6874 55.5327C25.4572 55.5327 25.2413 55.5142 25.0396 55.4773C24.8408 55.4432 24.676 55.3991 24.5453 55.3452L24.9544 53.9901C25.1675 54.0554 25.3592 54.0909 25.5297 54.0966C25.703 54.1023 25.8521 54.0625 25.9771 53.9773C26.105 53.892 26.2087 53.7472 26.2882 53.5426L26.3947 53.2656L24.0467 46.5327H25.9558L27.3109 51.3395H27.3791L28.747 46.5327H30.6689L28.1249 53.7855C28.0027 54.1378 27.8365 54.4446 27.6263 54.706C27.4189 54.9702 27.1561 55.1733 26.8379 55.3153C26.5197 55.4602 26.1362 55.5327 25.6874 55.5327ZM34.4093 53.0781V44.3509H37.8525C38.5144 44.3509 39.0783 44.4773 39.5442 44.7301C40.0102 44.9801 40.3653 45.3281 40.6096 45.7741C40.8567 46.2173 40.9803 46.7287 40.9803 47.3082C40.9803 47.8878 40.8553 48.3991 40.6053 48.8423C40.3553 49.2855 39.9931 49.6307 39.5187 49.8778C39.0471 50.125 38.4761 50.2486 37.8056 50.2486H35.611V48.7699H37.5073C37.8624 48.7699 38.155 48.7088 38.3852 48.5866C38.6181 48.4616 38.7914 48.2898 38.905 48.071C39.0215 47.8494 39.0798 47.5952 39.0798 47.3082C39.0798 47.0185 39.0215 46.7656 38.905 46.5497C38.7914 46.331 38.6181 46.1619 38.3852 46.0426C38.1522 45.9205 37.8567 45.8594 37.4988 45.8594H36.2545V53.0781H34.4093ZM43.8354 53.2017C43.4178 53.2017 43.0457 53.1293 42.719 52.9844C42.3923 52.8366 42.1337 52.6193 41.9434 52.3324C41.7559 52.0426 41.6621 51.6818 41.6621 51.25C41.6621 50.8864 41.7289 50.581 41.8624 50.3338C41.996 50.0866 42.1778 49.8878 42.4079 49.7372C42.638 49.5866 42.8994 49.473 43.192 49.3963C43.4874 49.3196 43.7971 49.2656 44.121 49.2344C44.5016 49.1946 44.8085 49.1577 45.0414 49.1236C45.2744 49.0866 45.4434 49.0327 45.5485 48.9616C45.6536 48.8906 45.7062 48.7855 45.7062 48.6463V48.6207C45.7062 48.3509 45.621 48.142 45.4505 47.9943C45.2829 47.8466 45.0442 47.7727 44.7346 47.7727C44.4079 47.7727 44.1479 47.8452 43.9548 47.9901C43.7616 48.1321 43.6337 48.3111 43.5712 48.527L41.8923 48.3906C41.9775 47.9929 42.1451 47.6491 42.3951 47.3594C42.6451 47.0668 42.9675 46.8423 43.3624 46.6861C43.7602 46.527 44.2204 46.4474 44.7431 46.4474C45.1067 46.4474 45.4548 46.4901 45.7871 46.5753C46.1224 46.6605 46.4192 46.7926 46.6778 46.9716C46.9391 47.1506 47.1451 47.3807 47.2957 47.6619C47.4462 47.9403 47.5215 48.2741 47.5215 48.6634V53.0781H45.7999V52.1705H45.7488C45.6437 52.375 45.5031 52.5554 45.3269 52.7116C45.1508 52.8651 44.9391 52.9858 44.692 53.0739C44.4448 53.1591 44.1593 53.2017 43.8354 53.2017ZM44.3553 51.9489C44.6224 51.9489 44.8582 51.8963 45.0627 51.7912C45.2673 51.6832 45.4278 51.5384 45.5442 51.3565C45.6607 51.1747 45.719 50.9687 45.719 50.7386V50.044C45.6621 50.081 45.584 50.1151 45.4846 50.1463C45.388 50.1747 45.2786 50.2017 45.1565 50.2273C45.0343 50.25 44.9121 50.2713 44.79 50.2912C44.6678 50.3082 44.557 50.3239 44.4576 50.3381C44.2445 50.3693 44.0585 50.419 43.8994 50.4872C43.7403 50.5554 43.6167 50.6477 43.5286 50.7642C43.4406 50.8778 43.3965 51.0199 43.3965 51.1903C43.3965 51.4375 43.486 51.6264 43.665 51.7571C43.8468 51.8849 44.0769 51.9489 44.3553 51.9489ZM51.8788 55.669C51.2907 55.669 50.7864 55.5881 50.366 55.4261C49.9484 55.267 49.616 55.0497 49.3688 54.7741C49.1217 54.4986 48.9611 54.1889 48.8873 53.8452L50.5663 53.6193C50.6174 53.75 50.6984 53.8722 50.8092 53.9858C50.92 54.0994 51.0663 54.1903 51.2481 54.2585C51.4327 54.3295 51.6572 54.3651 51.9214 54.3651C52.3163 54.3651 52.6415 54.2685 52.8972 54.0753C53.1558 53.8849 53.285 53.5653 53.285 53.1165V51.919H53.2083C53.1288 52.1009 53.0094 52.2727 52.8504 52.4347C52.6913 52.5966 52.4867 52.7287 52.2367 52.831C51.9867 52.9332 51.6884 52.9844 51.3418 52.9844C50.8504 52.9844 50.4029 52.8707 49.9995 52.6435C49.5989 52.4134 49.2793 52.0625 49.0407 51.5909C48.8049 51.1165 48.687 50.517 48.687 49.7926C48.687 49.0511 48.8077 48.4318 49.0492 47.9347C49.2907 47.4375 49.6117 47.0653 50.0123 46.8182C50.4157 46.571 50.8575 46.4474 51.3376 46.4474C51.704 46.4474 52.0109 46.5099 52.258 46.6349C52.5052 46.7571 52.704 46.9105 52.8546 47.0952C53.008 47.277 53.1259 47.456 53.2083 47.6321H53.2765V46.5327H55.079V53.142C55.079 53.6989 54.9427 54.1648 54.67 54.5398C54.3972 54.9148 54.0194 55.196 53.5364 55.3835C53.0563 55.5739 52.5038 55.669 51.8788 55.669ZM51.9171 51.6207C52.2097 51.6207 52.4569 51.5483 52.6586 51.4034C52.8631 51.2557 53.0194 51.0455 53.1273 50.7727C53.2381 50.4972 53.2935 50.1676 53.2935 49.7841C53.2935 49.4006 53.2396 49.0682 53.1316 48.7869C53.0236 48.5028 52.8674 48.2827 52.6629 48.1264C52.4583 47.9702 52.2097 47.892 51.9171 47.892C51.6188 47.892 51.3674 47.973 51.1629 48.1349C50.9583 48.294 50.8035 48.5156 50.6984 48.7997C50.5933 49.0838 50.5407 49.4119 50.5407 49.7841C50.5407 50.1619 50.5933 50.4886 50.6984 50.7642C50.8063 51.0369 50.9611 51.2486 51.1629 51.3991C51.3674 51.5469 51.6188 51.6207 51.9171 51.6207ZM59.5066 53.206C58.8333 53.206 58.2538 53.0696 57.768 52.7969C57.285 52.5213 56.9129 52.1321 56.6515 51.6293C56.3901 51.1236 56.2594 50.5256 56.2594 49.8352C56.2594 49.1619 56.3901 48.571 56.6515 48.0625C56.9129 47.554 57.2808 47.1577 57.7552 46.8736C58.2325 46.5895 58.7921 46.4474 59.4342 46.4474C59.866 46.4474 60.268 46.517 60.6401 46.6562C61.0151 46.7926 61.3418 46.9986 61.6202 47.2741C61.9015 47.5497 62.1202 47.8963 62.2765 48.3139C62.4327 48.7287 62.5109 49.2145 62.5109 49.7713V50.2699H56.9839V49.1449H60.8021C60.8021 48.8835 60.7452 48.652 60.6316 48.4503C60.518 48.2486 60.3603 48.0909 60.1586 47.9773C59.9597 47.8608 59.7282 47.8026 59.464 47.8026C59.1884 47.8026 58.9441 47.8665 58.731 47.9943C58.5208 48.1193 58.356 48.2884 58.2367 48.5014C58.1174 48.7116 58.0563 48.946 58.0535 49.2045V50.2741C58.0535 50.598 58.1131 50.8778 58.2325 51.1136C58.3546 51.3494 58.5265 51.5312 58.7481 51.6591C58.9697 51.7869 59.2325 51.8509 59.5364 51.8509C59.7381 51.8509 59.9228 51.8224 60.0904 51.7656C60.258 51.7088 60.4015 51.6236 60.5208 51.5099C60.6401 51.3963 60.731 51.2571 60.7935 51.0923L62.4725 51.2031C62.3873 51.6065 62.2126 51.9588 61.9484 52.2599C61.687 52.5582 61.3489 52.7912 60.9342 52.9588C60.5222 53.1236 60.0464 53.206 59.5066 53.206Z" fill="#ACB2BB"/>
</svg>
