<svg width="76" height="63" viewBox="0 0 76 63" fill="none" xmlns="http://www.w3.org/2000/svg">
<rect x="0.5" y="0.5" width="75" height="61.5882" rx="9.5" fill="white" stroke="white"/>
<path d="M23.3095 52.7061V43.9788H26.7527C27.4146 43.9788 27.9786 44.1052 28.4445 44.358C28.9104 44.608 29.2655 44.9561 29.5098 45.4021C29.757 45.8453 29.8806 46.3566 29.8806 46.9362C29.8806 47.5157 29.7556 48.0271 29.5056 48.4703C29.2556 48.9134 28.8933 49.2586 28.4189 49.5058C27.9473 49.7529 27.3763 49.8765 26.7058 49.8765H24.5112V48.3978H26.4075C26.7627 48.3978 27.0553 48.3367 27.2854 48.2146C27.5183 48.0896 27.6916 47.9177 27.8053 47.699C27.9218 47.4774 27.98 47.2231 27.98 46.9362C27.98 46.6464 27.9218 46.3936 27.8053 46.1776C27.6916 45.9589 27.5183 45.7899 27.2854 45.6705C27.0524 45.5484 26.757 45.4873 26.399 45.4873H25.1547V52.7061H23.3095ZM33.8969 52.8339C33.235 52.8339 32.6625 52.6933 32.1796 52.412C31.6994 52.1279 31.3287 51.733 31.0673 51.2274C30.806 50.7188 30.6753 50.1294 30.6753 49.4589C30.6753 48.7828 30.806 48.1918 31.0673 47.6862C31.3287 47.1776 31.6994 46.7828 32.1796 46.5015C32.6625 46.2174 33.235 46.0754 33.8969 46.0754C34.5588 46.0754 35.1298 46.2174 35.61 46.5015C36.0929 46.7828 36.4651 47.1776 36.7264 47.6862C36.9878 48.1918 37.1185 48.7828 37.1185 49.4589C37.1185 50.1294 36.9878 50.7188 36.7264 51.2274C36.4651 51.733 36.0929 52.1279 35.61 52.412C35.1298 52.6933 34.5588 52.8339 33.8969 52.8339ZM33.9054 51.4276C34.2066 51.4276 34.458 51.3424 34.6597 51.172C34.8614 50.9987 35.0134 50.7629 35.1156 50.4646C35.2208 50.1663 35.2733 49.8268 35.2733 49.4461C35.2733 49.0654 35.2208 48.7259 35.1156 48.4276C35.0134 48.1294 34.8614 47.8936 34.6597 47.7203C34.458 47.547 34.2066 47.4603 33.9054 47.4603C33.6014 47.4603 33.3458 47.547 33.1384 47.7203C32.9338 47.8936 32.779 48.1294 32.6739 48.4276C32.5716 48.7259 32.5205 49.0654 32.5205 49.4461C32.5205 49.8268 32.5716 50.1663 32.6739 50.4646C32.779 50.7629 32.9338 50.9987 33.1384 51.172C33.3458 51.3424 33.6014 51.4276 33.9054 51.4276ZM38.2989 52.7061V46.1606H40.1142V52.7061H38.2989ZM39.2108 45.3168C38.9409 45.3168 38.7094 45.2274 38.5162 45.0484C38.3259 44.8666 38.2307 44.6492 38.2307 44.3964C38.2307 44.1464 38.3259 43.9319 38.5162 43.7529C38.7094 43.5711 38.9409 43.4802 39.2108 43.4802C39.4807 43.4802 39.7108 43.5711 39.9012 43.7529C40.0943 43.9319 40.1909 44.1464 40.1909 44.3964C40.1909 44.6492 40.0943 44.8666 39.9012 45.0484C39.7108 45.2274 39.4807 45.3168 39.2108 45.3168ZM43.3838 48.922V52.7061H41.5684V46.1606H43.2985V47.3154H43.3752C43.5201 46.9347 43.763 46.6336 44.1039 46.412C44.4448 46.1876 44.8582 46.0754 45.344 46.0754C45.7985 46.0754 46.1948 46.1748 46.5329 46.3737C46.871 46.5725 47.1338 46.8566 47.3213 47.2259C47.5088 47.5924 47.6025 48.0299 47.6025 48.5384V52.7061H45.7872V48.8623C45.79 48.4617 45.6877 48.1492 45.4803 47.9248C45.273 47.6975 44.9874 47.5839 44.6238 47.5839C44.3795 47.5839 44.1636 47.6365 43.9761 47.7416C43.7914 47.8467 43.6465 48.0001 43.5414 48.2018C43.4392 48.4007 43.3866 48.6407 43.3838 48.922ZM52.5148 46.1606V47.5242H48.573V46.1606H52.5148ZM49.4679 44.5924H51.2833V50.6947C51.2833 50.8623 51.3088 50.993 51.36 51.0867C51.4111 51.1776 51.4821 51.2416 51.573 51.2785C51.6668 51.3154 51.7747 51.3339 51.8969 51.3339C51.9821 51.3339 52.0673 51.3268 52.1526 51.3126C52.2378 51.2955 52.3031 51.2828 52.3486 51.2742L52.6341 52.6251C52.5432 52.6535 52.4154 52.6862 52.2506 52.7231C52.0858 52.7629 51.8855 52.787 51.6497 52.7955C51.2122 52.8126 50.8287 52.7544 50.4992 52.6208C50.1725 52.4873 49.9182 52.2799 49.7364 51.9987C49.5546 51.7174 49.4651 51.3623 49.4679 50.9333V44.5924Z" fill="#ACB2BB"/>
<path d="M34.6797 20.1473L41.2142 10.9526L48.8366 16.2245L46.0574 20.1473H34.6797ZM34.6797 20.1473H28.0044L33.4533 12.4848L37.9701 15.55L34.6797 20.1473Z" stroke="#ACB2BB" stroke-width="2" stroke-linecap="round" stroke-linejoin="round"/>
<path d="M50.3891 20.1475H25.552C24.6952 20.1475 24 20.8338 24 21.6797V37.0046C24 37.8505 24.6952 38.5368 25.552 38.5368H50.3891C51.246 38.5368 51.9412 37.8505 51.9412 37.0046V21.6797C51.9412 20.8338 51.246 20.1475 50.3891 20.1475Z" stroke="#ACB2BB" stroke-width="2" stroke-linecap="round" stroke-linejoin="round"/>
<path d="M44.1795 26.2769H51.9412V32.4071H44.1795C43.9756 32.4071 43.7737 32.3675 43.5854 32.2904C43.397 32.2134 43.2259 32.1005 43.0818 31.9581C42.9376 31.8157 42.8233 31.6467 42.7454 31.4608C42.6674 31.2748 42.6273 31.0755 42.6274 30.8742V27.8098C42.6274 27.4034 42.7909 27.0136 43.082 26.7261C43.373 26.4386 43.7678 26.2771 44.1795 26.2769Z" stroke="#ACB2BB" stroke-width="2" stroke-linecap="round" stroke-linejoin="round"/>
</svg>
