<svg width="76" height="63" viewBox="0 0 76 63" fill="none" xmlns="http://www.w3.org/2000/svg">
<rect x="0.5" y="0.5" width="75" height="61.5882" rx="9.5" fill="white" stroke="white"/>
<path d="M29.3898 49.672H30.9579L31.7463 50.6862L32.5219 51.5896L33.9835 53.422H32.2619L31.2562 52.1862L30.7406 51.4532L29.3898 49.672ZM34.1156 48.3424C34.1156 49.2941 33.9352 50.1038 33.5744 50.7714C33.2165 51.439 32.7278 51.949 32.1085 52.3012C31.492 52.6507 30.7989 52.8254 30.029 52.8254C29.2534 52.8254 28.5574 52.6492 27.9409 52.297C27.3244 51.9447 26.8372 51.4347 26.4793 50.7671C26.1213 50.0995 25.9423 49.2913 25.9423 48.3424C25.9423 47.3907 26.1213 46.5811 26.4793 45.9134C26.8372 45.2458 27.3244 44.7373 27.9409 44.3879C28.5574 44.0356 29.2534 43.8595 30.029 43.8595C30.7989 43.8595 31.492 44.0356 32.1085 44.3879C32.7278 44.7373 33.2165 45.2458 33.5744 45.9134C33.9352 46.5811 34.1156 47.3907 34.1156 48.3424ZM32.2449 48.3424C32.2449 47.7259 32.1525 47.2061 31.9679 46.7828C31.7861 46.3595 31.529 46.0384 31.1966 45.8197C30.8642 45.6009 30.475 45.4916 30.029 45.4916C29.5829 45.4916 29.1937 45.6009 28.8614 45.8197C28.529 46.0384 28.2704 46.3595 28.0858 46.7828C27.904 47.2061 27.8131 47.7259 27.8131 48.3424C27.8131 48.9589 27.904 49.4788 28.0858 49.9021C28.2704 50.3254 28.529 50.6464 28.8614 50.8651C29.1937 51.0839 29.5829 51.1933 30.029 51.1933C30.475 51.1933 30.8642 51.0839 31.1966 50.8651C31.529 50.6464 31.7861 50.3254 31.9679 49.9021C32.1525 49.4788 32.2449 48.9589 32.2449 48.3424ZM37.2637 48.922V52.7061H35.4484V46.1606H37.1785V47.3154H37.2552C37.4001 46.9347 37.643 46.6336 37.9839 46.412C38.3248 46.1876 38.7381 46.0754 39.2239 46.0754C39.6785 46.0754 40.0748 46.1748 40.4128 46.3737C40.7509 46.5725 41.0137 46.8566 41.2012 47.2259C41.3887 47.5924 41.4824 48.0299 41.4824 48.5384V52.7061H39.6671V48.8623C39.6699 48.4617 39.5677 48.1492 39.3603 47.9248C39.1529 47.6975 38.8674 47.5839 38.5038 47.5839C38.2594 47.5839 38.0435 47.6365 37.856 47.7416C37.6714 47.8467 37.5265 48.0001 37.4214 48.2018C37.3191 48.4007 37.2665 48.6407 37.2637 48.922ZM44.4516 52.7061H42.4743L45.4871 43.9788H47.8649L50.8734 52.7061H48.8962L46.7101 45.9731H46.6419L44.4516 52.7061ZM44.328 49.2757H48.9984V50.716H44.328V49.2757Z" fill="#434B60"/>
<path d="M38.3722 12.2939C45.368 12.2939 51.0389 18.1316 51.0389 25.3332C51.0389 32.5347 45.368 38.3724 38.3722 38.3724C31.3764 38.3724 25.7056 32.5347 25.7056 25.3332C25.7056 18.1316 31.3764 12.2939 38.3722 12.2939ZM38.3722 30.5488C38.0363 30.5488 37.7141 30.6862 37.4766 30.9308C37.239 31.1753 37.1056 31.5069 37.1056 31.8528C37.1056 32.1986 37.239 32.5302 37.4766 32.7748C37.7141 33.0193 38.0363 33.1567 38.3722 33.1567C38.7082 33.1567 39.0304 33.0193 39.2679 32.7748C39.5054 32.5302 39.6389 32.1986 39.6389 31.8528C39.6389 31.5069 39.5054 31.1753 39.2679 30.9308C39.0304 30.6862 38.7082 30.5488 38.3722 30.5488ZM38.3722 18.1616C37.1544 18.1616 35.9865 18.6596 35.1254 19.546C34.2643 20.4324 33.7806 21.6347 33.7806 22.8883C33.7806 23.2341 33.914 23.5658 34.1516 23.8103C34.3891 24.0549 34.7113 24.1922 35.0472 24.1922C35.3832 24.1922 35.7054 24.0549 35.9429 23.8103C36.1804 23.5658 36.3139 23.2341 36.3139 22.8883C36.3143 22.5037 36.4164 22.1265 36.6093 21.797C36.8021 21.4676 37.0784 21.1984 37.4086 21.0184C37.7387 20.8383 38.1102 20.7541 38.4833 20.7749C38.8564 20.7957 39.2169 20.9205 39.5263 21.1362C39.8357 21.3518 40.0822 21.6501 40.2394 21.999C40.3967 22.3479 40.4587 22.7343 40.4188 23.1167C40.379 23.4991 40.2388 23.8631 40.0132 24.1698C39.7877 24.4764 39.4853 24.714 39.1386 24.8572C38.2823 25.2093 37.1056 26.1116 37.1056 27.615V27.941C37.1056 28.2868 37.239 28.6185 37.4766 28.863C37.7141 29.1075 38.0363 29.2449 38.3722 29.2449C38.7082 29.2449 39.0304 29.1075 39.2679 28.863C39.5054 28.6185 39.6389 28.2868 39.6389 27.941C39.6389 27.6228 39.7022 27.4638 39.9695 27.3282L40.0797 27.276C41.0687 26.8664 41.8886 26.1155 42.3986 25.1518C42.9087 24.1882 43.0773 23.0719 42.8754 21.9943C42.6735 20.9168 42.1138 19.945 41.2922 19.2458C40.4706 18.5465 39.4383 18.1632 38.3722 18.1616Z" fill="#434B60"/>
</svg>
