<svg width="23" height="22" viewBox="0 0 23 22" fill="none" xmlns="http://www.w3.org/2000/svg">
<path d="M21.5002 20.71L16.7953 16.0948M16.7953 16.0948C17.6001 15.3054 18.2385 14.3681 18.6741 13.3367C19.1096 12.3052 19.3338 11.1997 19.3338 10.0833C19.3338 8.96682 19.1096 7.86131 18.6741 6.82984C18.2385 5.79838 17.6001 4.86117 16.7953 4.07173C15.9905 3.28228 15.0351 2.65606 13.9836 2.22881C12.932 1.80157 11.805 1.58167 10.6669 1.58167C9.52874 1.58167 8.40173 1.80157 7.35021 2.22881C6.2987 2.65606 5.34327 3.28228 4.53847 4.07173C2.91312 5.66609 2 7.8285 2 10.0833C2 12.338 2.91312 14.5004 4.53847 16.0948C6.16383 17.6892 8.36829 18.5849 10.6669 18.5849C12.9655 18.5849 15.1699 17.6892 16.7953 16.0948Z" stroke="black" stroke-width="2.5" stroke-linecap="round" stroke-linejoin="round"/>
</svg>
